<mxfile host="app.diagrams.net" modified="2023-12-31T06:45:04.730Z" agent="Mozilla/5.0 (Macintosh; Intel Mac OS X 10_15_7) AppleWebKit/537.36 (KHTML, like Gecko) Chrome/120.0.0.0 Safari/537.36" etag="xSEY0A2lWPRU_PnfX-3s" version="22.1.16" type="github">
  <diagram name="Page-1" id="4PiOrHB1vZXOZC7ot8nk">
    <mxGraphModel dx="2417" dy="959" grid="0" gridSize="10" guides="1" tooltips="1" connect="1" arrows="1" fold="1" page="1" pageScale="1" pageWidth="850" pageHeight="1100" math="0" shadow="0">
      <root>
        <mxCell id="0" />
        <mxCell id="1" parent="0" />
        <mxCell id="aKmqtwNoeb4QGpq1XTbU-3" value="How IP ADDRESSES WORK - AND CIDR:&lt;br&gt;&lt;br&gt;Formula AND the mask and allocate what is left.&amp;nbsp; Divide it between subnets&lt;br&gt;EX:&amp;nbsp;&lt;br&gt;&lt;br&gt;&amp;nbsp;&lt;br&gt;FFFF0000/16&lt;br&gt;in Binary:&lt;br&gt;11111111.11111111.11111111.11111111/32&amp;nbsp; &amp;nbsp; &amp;nbsp; &amp;nbsp; &amp;nbsp; &amp;nbsp; &amp;nbsp; 0 LEFT TO ALLOCATE&lt;br&gt;11111111.11111111.00000000.00000000/16 - 1111111111111111 =&amp;nbsp; 2**16 =65535&amp;nbsp; allocate&lt;br&gt;11111111.11111111.10000000.00000000/17 - 0111111111111111 =&amp;nbsp; 2**15 =32768&lt;br&gt;11111111.11111111.11000000.00000000/18&amp;nbsp;- 0111111111111111 =&amp;nbsp; 2**14 =16384&lt;br&gt;11111111.11111111.11100000.00000000/19&amp;nbsp;- 0111111111111111 =&amp;nbsp; 2**13 =08192&lt;br&gt;11111111.11111111.11110000.00000000/20&amp;nbsp;- 0111111111111111 =&amp;nbsp; 2**12 =04096&lt;br&gt;11111111.11111111.11111000.00000000/21&amp;nbsp;- 0111111111111111 =&amp;nbsp; 2**11 =02048&lt;br&gt;11111111.11111111.11111100.00000000/22&amp;nbsp;- 0111111111111111 =&amp;nbsp; 2**10 =01024&lt;br&gt;11111111.11111111.11111110.00000000/23&amp;nbsp;- 0111111111111111 =&amp;nbsp; 2**09 =00512&lt;br&gt;11111111.11111111.11111111.00000000/24&amp;nbsp;- 0111111111111111 =&amp;nbsp; 2**08 =00256&lt;br&gt;11111111.11111111.11111111.10000000/25&amp;nbsp;- 0111111111111111 =&amp;nbsp; 2**07 =00128&lt;br&gt;11111111.11111111.11111111.11000000/26&amp;nbsp;- 0111111111111111 =&amp;nbsp; 2**06 =00064&lt;br&gt;11111111.11111111.11111111.11100000/27&amp;nbsp;- 0111111111111111 =&amp;nbsp; 2**05 =00032&lt;br&gt;11111111.11111111.11111111.11110000/28&amp;nbsp;- 0111111111111111 =&amp;nbsp; 2**04 =00016&lt;br&gt;11111111.11111111.11111111.11111000/29&amp;nbsp;- 0111111111111111 =&amp;nbsp; 2**03 =00008&lt;br&gt;11111111.11111111.11111111.11111100/30&amp;nbsp;- 0111111111111111 =&amp;nbsp; 2**02 =00004&lt;br&gt;11111111.11111111.11111111.11111110/31&amp;nbsp;- 0111111111111111 =&amp;nbsp; 2**01 =00002&lt;br&gt;11111111.11111111.11111111.11111111/32&amp;nbsp;- 0111111111111111 =&amp;nbsp; 2**00 =00001 allocate" style="text;html=1;strokeColor=none;fillColor=none;align=left;verticalAlign=middle;whiteSpace=wrap;rounded=0;" vertex="1" parent="1">
          <mxGeometry x="17" y="44" width="727" height="440" as="geometry" />
        </mxCell>
        <mxCell id="aKmqtwNoeb4QGpq1XTbU-5" value="" style="shape=image;verticalLabelPosition=bottom;labelBackgroundColor=default;verticalAlign=top;aspect=fixed;imageAspect=0;image=data:image/png,iVBORw0KGgoAAAANSUhEUgAABewAAAEeCAYAAAD4qVXwAAAMPmlDQ1BJQ0MgUHJvZmlsZQAASImVVwdYU8kWnluSkEBoAQSkhN4EkRpASggt9N5EJSQBQokxEFTs6KKCaxcL2NBVEQUrzYIidhbF3hcLKsq6WLArb1JA133le+f75t7//nPmP2fOnVsGALXjHJEoD1UHIF9YKI4N9qcnp6TSSU8BCRABAkYDPQ63QMSMjg4H0IbOf7d316EntCv2Uq1/9v9X0+DxC7gAINEQZ/AKuPkQHwQAr+KKxIUAEKW82ZRCkRTDBrTEMEGIF0pxlhxXSXGGHO+V+cTHsiBuB0BJhcMRZwGgegny9CJuFtRQ7YfYUcgTCAFQo0Psk58/iQdxOsTW0EcEsVSfkfGDTtbfNDOGNTmcrGEsn4vMlAIEBaI8zrT/sxz/2/LzJEMxLGFTyRaHxErnDOt2M3dSmBSrQNwnzIiMglgT4g8CnswfYpSSLQlJkPujBtwCFqwZ0IHYkccJCIPYAOIgYV5kuILPyBQEsSGGKwSdKihkx0OsC/FCfkFgnMJns3hSrCIW2pApZjEV/FmOWBZXGuu+JDeBqdB/nc1nK/Qx1eLs+CSIKRCbFwkSIyFWhdihIDcuTOEztjibFTnkI5bESvM3hziWLwz2l+tjRZnioFiFf1l+wdB8sc3ZAnakAu8vzI4PkdcHa+dyZPnDuWCX+EJmwpAOvyA5fGguPH5AoHzu2DO+MCFOofNBVOgfKx+LU0R50Qp/3JSfFyzlTSF2KSiKU4zFEwvhgpTr45miwuh4eZ54cQ4nNFqeD74MhAMWCAB0IIEtA0wCOUDQ2dfYB6/kPUGAA8QgC/CBvYIZGpEk6xHCYxwoBn9CxAcFw+P8Zb18UAT5r8Os/GgPMmW9RbIRueAJxPkgDOTBa4lslHA4WiJ4DBnBP6JzYOPCfPNgk/b/e36I/c4wIROuYCRDEelqQ57EQGIAMYQYRLTB9XEf3AsPh0c/2JxwBu4xNI/v/oQnhC7CQ8I1Qjfh1kRBifinLCNAN9QPUtQi48da4JZQ0xX3x72hOlTGdXB9YI+7wDhM3BdGdoUsS5G3tCr0n7T/NoMf7obCj+xIRskjyH5k659Hqtqqug6rSGv9Y33kuWYM15s13PNzfNYP1efBc9jPnthC7AB2BjuBncOOYI2AjrViTVgHdlSKh1fXY9nqGooWK8snF+oI/hFv6M5KK1ngWOvY6/hF3lfInyp9RwPWJNE0sSAru5DOhF8EPp0t5DqMojs5OjkDIP2+yF9fb2Jk3w1Ep+M7N+8PALxbBwcHD3/nQlsB2OcOH//m75w1A346lAE428yViIvkHC49EOBbQg0+aXrACJgBazgfJ+AGvIAfCAShIArEgxQwAWafDde5GEwBM8BcUArKwTKwGqwHm8BWsBPsAftBIzgCToDT4AK4BK6BO3D19IAXoB+8A58RBCEhVISG6CHGiAVihzghDMQHCUTCkVgkBUlHshAhIkFmIPOQcmQFsh7ZgtQg+5Bm5ARyDulCbiEPkF7kNfIJxVAVVAs1RC3R0SgDZaJhaDw6Hs1CJ6PF6Hx0CboWrUZ3ow3oCfQCeg3tRl+gAxjAlDEdzASzxxgYC4vCUrFMTIzNwsqwCqwaq8Na4H2+gnVjfdhHnIjTcDpuD1dwCJ6Ac/HJ+Cx8Mb4e34k34O34FfwB3o9/I1AJBgQ7gieBTUgmZBGmEEoJFYTthEOEU/BZ6iG8IxKJOkQrojt8FlOIOcTpxMXEDcR64nFiF/ERcYBEIumR7EjepCgSh1RIKiWtI+0mtZIuk3pIH5SUlYyVnJSClFKVhEolShVKu5SOKV1Weqr0maxOtiB7kqPIPPI08lLyNnIL+SK5h/yZokGxonhT4ik5lLmUtZQ6yinKXcobZWVlU2UP5RhlgfIc5bXKe5XPKj9Q/qiiqWKrwlJJU5GoLFHZoXJc5ZbKGyqVakn1o6ZSC6lLqDXUk9T71A+qNFUHVbYqT3W2aqVqg+pl1ZdqZDULNabaBLVitQq1A2oX1frUyeqW6ix1jvos9Ur1ZvUb6gMaNI0xGlEa+RqLNXZpnNN4pknStNQM1ORpztfcqnlS8xENo5nRWDQubR5tG+0UrUeLqGWlxdbK0SrX2qPVqdWvrantop2oPVW7UvuodrcOpmOpw9bJ01mqs1/nus6nEYYjmCP4IxaNqBtxecR73ZG6frp83TLdet1rup/06HqBerl6y/Ua9e7p4/q2+jH6U/Q36p/S7xupNdJrJHdk2cj9I28boAa2BrEG0w22GnQYDBgaGQYbigzXGZ407DPSMfIzyjFaZXTMqNeYZuxjLDBeZdxq/JyuTWfS8+hr6e30fhMDkxATickWk06Tz6ZWpgmmJab1pvfMKGYMs0yzVWZtZv3mxuYR5jPMa81vW5AtGBbZFmsszli8t7SyTLJcYNlo+cxK14ptVWxVa3XXmmrtaz3Zutr6qg3RhmGTa7PB5pItautqm21baXvRDrVzsxPYbbDrGkUY5TFKOKp61A17FXumfZF9rf0DBx2HcIcSh0aHl6PNR6eOXj76zOhvjq6OeY7bHO+M0RwTOqZkTMuY1062TlynSqerzlTnIOfZzk3Or1zsXPguG11uutJcI1wXuLa5fnVzdxO71bn1upu7p7tXud9gaDGiGYsZZz0IHv4esz2OeHz0dPMs9Nzv+ZeXvVeu1y6vZ2OtxvLHbhv7yNvUm+O9xbvbh+6T7rPZp9vXxJfjW+370M/Mj+e33e8p04aZw9zNfOnv6C/2P+T/nuXJmsk6HoAFBAeUBXQGagYmBK4PvB9kGpQVVBvUH+waPD34eAghJCxkecgNtiGby65h94e6h84MbQ9TCYsLWx/2MNw2XBzeEoFGhEasjLgbaREpjGyMAlHsqJVR96KtoidHH44hxkTHVMY8iR0TOyP2TBwtbmLcrrh38f7xS+PvJFgnSBLaEtUS0xJrEt8nBSStSOpOHp08M/lCin6KIKUplZSamLo9dWBc4LjV43rSXNNK066Ptxo/dfy5CfoT8iYcnag2kTPxQDohPSl9V/oXThSnmjOQwc6oyujnsrhruC94frxVvF6+N38F/2mmd+aKzGdZ3lkrs3qzfbMrsvsELMF6wauckJxNOe9zo3J35A7mJeXV5yvlp+c3CzWFucL2SUaTpk7qEtmJSkXdkz0nr57cLw4Tby9ACsYXNBVqwR/5Dom15BfJgyKfosqiD1MSpxyYqjFVOLVjmu20RdOeFgcV/zYdn86d3jbDZMbcGQ9mMmdumYXMypjVNtts9vzZPXOC5+ycS5mbO/f3EseSFSVv5yXNa5lvOH/O/Ee/BP9SW6paKi69scBrwaaF+ELBws5FzovWLfpWxis7X+5YXlH+ZTF38flfx/y69tfBJZlLOpe6Ld24jLhMuOz6ct/lO1dorChe8WhlxMqGVfRVZaverp64+lyFS8WmNZQ1kjXda8PXNq0zX7ds3Zf12euvVfpX1lcZVC2qer+Bt+HyRr+NdZsMN5Vv+rRZsPnmluAtDdWW1RVbiVuLtj7ZlrjtzG+M32q2628v3/51h3BH987Yne017jU1uwx2La1FayW1vbvTdl/aE7Cnqc6+bku9Tn35XrBXsvf5vvR91/eH7W87wDhQd9DiYNUh2qGyBqRhWkN/Y3Zjd1NKU1dzaHNbi1fLocMOh3ccMTlSeVT76NJjlGPzjw22FrcOHBcd7zuRdeJR28S2OyeTT15tj2nvPBV26uzpoNMnzzDPtJ71PnvknOe55vOM840X3C40dLh2HPrd9fdDnW6dDRfdLzZd8rjU0jW269hl38snrgRcOX2VffXCtchrXdcTrt+8kXaj+ybv5rNbebde3S66/fnOnLuEu2X31O9V3De4X/2HzR/13W7dRx8EPOh4GPfwziPuoxePCx5/6Zn/hPqk4qnx05pnTs+O9Ab1Xno+7nnPC9GLz32lf2r8WfXS+uXBv/z+6uhP7u95JX41+HrxG703O966vG0biB64/y7/3ef3ZR/0Puz8yPh45lPSp6efp3whfVn71eZry7ewb3cH8wcHRRwxR/YrgMGGZmYC8HoHANQUAGhwf0YZJ9//yQyR71llCPwnLN8jyswNgDr4/x7TB/9ubgCwdxvcfkF9tTQAoqkAxHsA1Nl5uA3t1WT7SqkR4T5gc/TXjPwM8G9Mvuf8Ie+fz0Cq6gJ+Pv8Ls3V8YMtLNKUAAACKZVhJZk1NACoAAAAIAAQBGgAFAAAAAQAAAD4BGwAFAAAAAQAAAEYBKAADAAAAAQACAACHaQAEAAAAAQAAAE4AAAAAAAAAkAAAAAEAAACQAAAAAQADkoYABwAAABIAAAB4oAIABAAAAAEAAAXsoAMABAAAAAEAAAEeAAAAAEFTQ0lJAAAAU2NyZWVuc2hvdDaYw0AAAAAJcEhZcwAAFiUAABYlAUlSJPAAAAHXaVRYdFhNTDpjb20uYWRvYmUueG1wAAAAAAA8eDp4bXBtZXRhIHhtbG5zOng9ImFkb2JlOm5zOm1ldGEvIiB4OnhtcHRrPSJYTVAgQ29yZSA2LjAuMCI+CiAgIDxyZGY6UkRGIHhtbG5zOnJkZj0iaHR0cDovL3d3dy53My5vcmcvMTk5OS8wMi8yMi1yZGYtc3ludGF4LW5zIyI+CiAgICAgIDxyZGY6RGVzY3JpcHRpb24gcmRmOmFib3V0PSIiCiAgICAgICAgICAgIHhtbG5zOmV4aWY9Imh0dHA6Ly9ucy5hZG9iZS5jb20vZXhpZi8xLjAvIj4KICAgICAgICAgPGV4aWY6UGl4ZWxZRGltZW5zaW9uPjI4NjwvZXhpZjpQaXhlbFlEaW1lbnNpb24+CiAgICAgICAgIDxleGlmOlBpeGVsWERpbWVuc2lvbj4xNTE2PC9leGlmOlBpeGVsWERpbWVuc2lvbj4KICAgICAgICAgPGV4aWY6VXNlckNvbW1lbnQ+U2NyZWVuc2hvdDwvZXhpZjpVc2VyQ29tbWVudD4KICAgICAgPC9yZGY6RGVzY3JpcHRpb24+CiAgIDwvcmRmOlJERj4KPC94OnhtcG1ldGE+ChXMyTYAAAAcaURPVAAAAAIAAAAAAAAAjwAAACgAAACPAAAAjwAAkteWmQgaAABAAElEQVR4AeydB7jtRNWGxyuCgNK7SFd6EZBelPpzQZEmXRAEpUoRlQ6CSBHpIAoIoiKiIKBSpLeLiHQBUaqioKAielFE/HmjK86ek2RnZ8+cs3P2t57nnOwkk5XJtzKTmW/WrHnTYost9m8nEQLjAIHpp5/eTZgwIXuS3/zmN+PgifQIQkAICAEhIASEgBAQAkJACAgBISAEhIAQGD4E5p13XvfmN785e/Dnn39++ADQEw81Am8SYT/U9h9XDy/CflyZUw8jBISAEBACQkAICAEhIASEgBAQAkJACAwpAiLsh9TweuwMgTe9UQDkYa+XQQgIASEgBISAEBACQkAICAEhIASEgBAQAkJACAgBISAEhMAYIyDCfowNoNsLASEgBISAEBACQkAICAEhIASEgBAQAkJACAgBISAEhIAQAAER9noPhIAQEAJCQAgIASEgBISAEBACQkAICAEhIASEgBAQAkJACAwAAiLsB8AIyoIQEAJCQAgIASEgBISAEBACQkAICAEhIASEgBAQAkJACAgBEfZ6B4SAEBACQkAICAEhIASEgBAQAkJACAgBISAEhIAQEAJCQAgMAAIi7AfACMqCEBACQkAICAEhIASEgBAQAkJACAgBISAEhIAQEAJCQAgIARH2egeEgBAQAkJACAgBISAEhIAQEAJCQAgIASEgBISAEBACQkAIDAACIuwHwAjKghAQAkJACAgBISAEhIAQEAJCQAgIASEgBISAEBACQkAICAER9noHhIAQEAJCQAgIASEgBISAEBAC4wyBZZZZxi244ILZU/3iF79wDz300Dh7Qj2OEBACQmAwEJh77rndiiuumGXm6aefdnffffdgZEy5EAJCoLUIiLBvremUcSEgBISAEBACQkAICAEhIASEwEgE3va2t7nzzjvPvfnNb85O3nDDDe6MM84YmVBHhIAQEAJCoG8EPvKRj7iNN9440/Pvf//b7bLLLu5Pf/pT33qlQAgIgeFFQIT98NpeTy4EhIAQEAJCQAgIASEgBHpGYJpppnGTJ0/u+bo6F0A0//Wvf62TVGkqEDjooIPccsstl6X417/+5bbffnv3j3/8o+KK8XFq6qmndq+88kq0h0Hf3//+dwcBN6wSs0xONdVU7rXXXnO8kxIh0ASBN73pTY73iHIZS2J80xgc/eY3v+ne8pa3ZNl65JFH3CGHHBIri9IjBITAECIwMIT9dNNNlzUkZ5555twMeILcdttt+X6vP+aff3734Q9/OKvQ7dpzzjnH/fa3v7Xd2tsNNtjATZw40c0666xuiimmyK579dVX3TPPPOO+853vuHvuuae2LksYW+db3/pWt+WWW7o11ljD0bAinzSGyOeDDz6YfUB+85vf2O1rbeeYYw637bbbuqWXXtqhnw8ROl9++WU3adIk961vfavnDttSSy2V5RP7TDnllFk+aLi9+OKL7uqrr3ZXXnllrbz5iVLo9PXH/D1hwgS3xRZbuIUXXjhX+8QTT7hvfOMb+X7dHynsY/eOWSZT2mfVVVd1a621lqPxhtAZPe644+wxam/bUn5S2rw2WDUSxq7f7JYxy08KnSnsM6zlJ0WZNJvH3KawT6ryw3MPcp1pdhn0708Km9uzx7KP6SvbzjDDDB1EwqOPPupoIxcJ0/xpT9Nuefvb35613fjmQmBCmOBBeN1117nLL7+86PKuxzbaaCO37rrrujnnnDP3Buci2pt/+ctfsrACtA2fffbZrrqU4D8IYLNTTjklh+Paa691Z599dr4/CD9i9dNWWGEFt9lmm7nZZ5896//wbvLu0K+gfX3zzTe7u+66q9Yj835vsskmWViL6aefPuv7+O1L3kfCCoHlP//5z1o6RyNRzDqT/MYsk7SLdt99d/fOd77TTTvttHkZp+/HwByk5plnntlzfzIVrjHbmW1rE6bANNY3jW8QuuCKGERDKIPPP/+8e+yxxzL+AF6mjqT8pm233XZZHWL5+OxnP+t++ctf2q62QkAICIGeEBhzwn6WWWZxn/jEJxwxFq1BZE9AA+vUU0+13drbxRdf3H3sYx9z88wzz4hrPv/5z/dErtOhOeaYY7JG4Ahl3oH777/fHX300e7111/3jhb/TKGTZz744IM7BifCu9OxYnCBvzrClC68cUK7+NfyoTz22GPdfffd5x8u/I2eT3/6046GdZW88MILDq8gGtrdJIXObvdsep7R9h122MGts846+ci76frDH/6QlQPbr7ONbR+7Z8wymdI+66+/vttqq60cnRRfeM8333xz/1DX320oPzxEKpt3BaiHBCnqN24fu/yk0BnbPsNcflKUyR5e41pJU9gnVfnhgQa9ziSPg/79SWFznhuJaZ//aKz+/6lPfcqtvPLKeSLahhdffHG+z4+VVlopm9LPe1lHXnrpJXfaaae5e++9t07yLLY67b06+iHr995771p6lci5L33pS27eeefNoIC8xvlmUAjmWP002gX0K5ZddtmuJmcw6etf/3pputlmmy3rR73jHe+o7PeYAsjmb3/72+6yyy6zQ2OyjVln8gCsdxCrTFp9+d73vrcrpryj3//+9zNHsDEB8o2bxm5ntqlNmALzWN80yuaRRx7p2FYJ/b8vfOEL7mc/+1lpstTfNG7MgA8OjbxPCAMKDFhJhIAQEAJNEBgzwp6RTYj6RRZZpPQj3ithDxH80Y9+tLJC74Wwx5v8K1/5Sq2OBODjcXH44YdX2iGFThqXJ510Uu6xUJmBN05ecMEF7oorrqhMhqcT9qkjfCAPOOAA9+STT1YmP/DAA93yyy9fmcZO4nHBoEu3zkUKnZaHWFtmO+y0005utdVWK7VRr4R9CvukKJOx7UPjf9NNN808F8y7IrRTr4R9W8pPCpuH2PW7n6J+S1F+UuhMYZ9hLT8pymS/73bR9bHtk6L8tKXObMP3h3cgts1T2KfoXQ2PMXuFWX3cH4F83HrrrUc4nUCQr7nmmuHllft8g3EgYYHTKsG7mtlwvPd15Pe//73bbbfd6iQd+jQQW2eddVaOAzNiv/jFL+b7Y/Ujdj+NZ+xG4vnPescdd7gTTzzRP5T/hvTnve1VLrnkkoy47/W6ftOnqDNjl8nPfOYzXZ20Qhy+/OUvux//+Mfh4aT7w9omTAFq7G8aM17OPffc2t8Jvj/Mfil7h1J+03w899hjj2z2tx1jgLwbT2JptRUCQkAI+AiMCWEfevX4GfJ/90LYUznjZdBNeiHs99lnH7f66qt3qCSkDCO3hJvBM2mmmWbqOM9iToTyKZMUOsNn52PF1OYHHnggm17MauXEeTPhPAQy0zqLBCL0wgsvzDtypIE4J+wPU0sXW2wxx3Rw6+hxHl0MlpQJI9qQ+r7giXXnnXe6v/3tb1nIHbw6fGFldUbKyySFzrJ7NT1OWIOdd965A6siXb0Q9insk6JMxrYPM2aOP/743GOhCEeO8X734mHfhvKTwuZl+PVzPHb9lqL8pNCZwj7DWn54/2KXyX7e6bJrY9uH+8QuP22pM9vw/cE+sW2eyj7ktZvsuuuumUe/pbvmmmsyBxXbt21IbhBy7rnnnnNPP/10FhKSMJHMkCUUiS+EyaGdWRYvnfYjcX79tinX0y4kpMHDDz+chd1h8G7RRRfNwvCIsPcRrv69//77u1VWWSVPtO+++2a45gfG4EdYr5dloW4/De9d3mNfeHd+9KMfZeExFlpoIcf3HhLaFzxfv/e97/mHst8hYY/HN23zX//61+7xxx/PQnDgZOaHs+RC2pwM5I1myIsUdWbsMllUX9JXpH+JgxshUfG8J5SreSIbnjiMMdt6NGRY24QpsE3xTTvssMMyjsDPL+Gt4Igon0sssUTmxAWx78snP/lJVxQGONU3zb83v8NBUyIxfO5znwuTaV8ICAEh0BWBMSHsixptEMIQt/602F4I++9+97sjSFEaBhApfkOgbkMQ5Jjq6F9b5JlBfEi8HEyIj7/XXnvZ7ohtbJ3c249RyQ3Zv+WWW/J7zzjjjI6BBL9jVNY546JtttkmiwVpCmi07rnnno7Okgme8sRk80l7FlUhDmGR4NnjN5r/+Mc/Zg1tGromeNTTcDLhvoQ8KQszlEKn3TvWlgYDawr4wjM/9dRTHXj0QtinsE+KMhnbPrxzdIpCoUHml8FeCPu2lJ8UNg9xjLEfu35LUX5S6Exhn2EtPynKZIx3O9QR2z7oj11+2lJntuH7g31i2zyFfchnN2G6/kUXXZSvx8Q3k5i7RYv3GblBe5qQOVdddVWh+g033DAj6P2TVe3MD37wg1mIQD897XjyVSTvec97HAQs3sySagRol1OX2HpbDIIweDLWErOfxjvMDBG/X1PUR+OZP/7xj7v11lsvf3wGkfhmh2KEPf1R1mOAWC4acHrXu97l6Ev6M0O69f3Ce/W7n6LOjF0mCWECmWrCOhf080Khn37++efn7yvni8JzhdfF2h/WNmEs/Hw9sb9phPQitJcvIcfBObgavs9+X5AZXoR2CiXVNy28D/t+OeU7yyy2bpEDivTomBAQAsONwJgT9jSGfvCDH2SNSyoywl2YNCXsIYOJU3jrrbeO6GDVJewJX4JHigk6d9llF9vNt3iw4MniCw0SGiahpNBJ7EY86E3KGqzhNG4GRz7ykY/YZR1bpp75Ayd8LG+//faONOx87Wtf64gfzsK2RxxxxIh0ofcpRDzeE2DqC6Pj6PQHAVgAraiDmEKnn5dYv/2GIB9rZhQQZoln9ddn6IWwj20fntVvVMQokynsEzYE8Xgi32x9oqsXwr4N5Qf7pLA5emNKivotRflJoTO2fYa5/KQokzHfc3SlsE+K8tOWOrMN358UNk9hnzrvOo4QLHxvUhUuBUeLueaaq7ANaNfbNiTomP6PJ3CRnHfeeY4FPU1YcPL666+3XW37QCAMz/bDH/7QgfdYi0/Y99tPgzRn/SwT+hVVMfrpE7LYqUlRX5AwUXjts7hxmaOQXc+CrP6sYkg4ytVoSew6k3zHLpPMoAFTE9aDK4stzoASg34mZf1JOx9zO6xtwpgYmq7Y37TQka9qYIwoC4RTMg6BviCL1IZlOdU3zTDwt+G3lkHGsV7zws+ffgsBIdAOBMaEsKdhzkKRTElkgRkqVYTGVj+EPaQnxAmhVExCj6iiRpql9bfhdXj90Nj0BQ8PGoF05HwhbhofjVBS6PSJSu5HfE/fE55jTFGDdLePGMcQppn9/Oc//8/Of/+Ho9llniibbLJJ5pHlX1zmER+uls60UbzzQ8E2TDf1hanXxIELJYXO8B4x9llk5n3ve182eMS7OXny5Ewt07ybEPYp7EOGYpfJFPYhDBPvLOGeiFvKAnQmfjnohbD3r0PXIJafVDY37GJtU9RvscsPzxpbZwr7DGv5wT6xyyQ6Y0sK+6QoP22oM7FNG74/KWyewj513nWfSON7CSny5z//uc6llWmIT07MapNXXnllRDuRcyGpU9bOMz3a9oYAjjNLLrlkfhGDJoMQO5k+VKx+WjijAyIYQrhMCLsCeWdSNUhlabpt/QEI0kLgMxNlNCR2nZmiTOIl789CgLws8y4O645enJj6xXtY24T94lZ0fexvWliXdQs7zJoozMQyKXM4tPPdtuF7WfZNK9MThsUp4z/KrtdxISAEhAAIjAlhz+IuLCoaSj+EPR7LL7/8cqiysYd92BAr8pon9A1kbChl009j62SKMGFoTMo+JAweEGc0lJ/+9KcdHiqcD5+JEDf+PUjDYAue735DjOMIJDQzI3wJ788gx+WXX+4nyRYl8jt6/kka2QwG+JJCp68/1m8LqRQ2UpsS9insw7PGLpOp7FNWzn2Sry5h35byk8rmsd5x0xO7fkNv7PKTQmcK+wxr+UlRJu39jLlNYZ8U5YdnHvQ6kzy24fuTwuax7YO+bkLYQdqzJsSSPvzww223ry1x7CESTWi3+SSpHcczGg9pk9NOO83ddNNNtqttnwhccMEFWZlCTd32UJ+3rHV5WV0UDlbWcawKF3SkT0HfokwgEv33vGzWdNn1Rcf9difnR3NgJHadmaJM+gOD4NMLYc8aGfvttx+XJZfY7cw2tQlTgFtWzv3yUrdeCheV5p3g3SiTsF647bbb3EknnVSWvOvxut+0KkUXX3xxHu6pzAmy6nqdEwJCQAiMCWFfBns/hH2ZziYNQRpCNHhNisLH4FV54oknjvBa55qiqZEpdIbxBoumEBZ5wttzFU1XZkGUxRdf3JJkUySZTusLXizhokt2/tJLL80WErN9tkwB82ch7Ljjjh2DKxD/4O2n8a8n3pzvTZ1Kp3/P1L+bEvYp7FP1rE3LZAqbV+WzSUOwLeVntG1ehXPZuRT1W9m9ON60/KTQmcI+w1p+UpTJKps3PRfbPqNdfnjuQakzq2wwSN+f2Daveu6m9ummk/Nh2Iui9lUdPUVpwkVAn3/++WxGU5gWhw/WVkLK2stFTj2hHu2PRGCaaabJYq/bGRbuJIb7IEuTflr43SXUJGsmlAmORoTcNCl67+xcnS39FeoEk7oEpKVPtW1aZ6YokwzEEU7LBO9nFgstkjD0SVl416JrUx1r2s4M303q3EHsR6fCrUxvkzZH+N0tcuDz7xdyHkU8h5++2++637QqPWE5YKHsF198seoSnRMCQkAIdCAgwr4Djv/shLERWdSSGHe++N5WLNQF6Wyj9EUNtxQ6d955Zzdx4sQ8W2GcytATnthvfuOpqCEfLqJLPGFihJuE08NCnSx2Gy6C60+LLPK4sgVguAfYEf9/pplmslu6L3zhCx1hjjiRQmd+w1H40bQhmMI+VY/btPE/2vZp0hBsS/kZbZtXvQ9l51LUb2X34njT8pNCZwr7DGv5SVEmq2ze9Fxs+4x2+eG5B6XOrLLBIH1/Ytu86rmb2qebzpVWWskdcMABebJ+yYxc0X9/hGslla1D9a1vfStfLJQQjoSi+8AHPuA+9KEPZXHtCd9IW5AQgoTGwHuatuVoydJLL92BUz/3JUxKOMOyH33drl111VU7PJOLZtJ20zHa55sQ9szIpT9iwjtFmNUyITRo6GnLOg5hfOuy68PjzK7Gk9pkNEO42D2Ltk3rzBRlcu211+4YsGP2Od94yrYvYV+Vc/S56XuPpTRtZ46HNmEK3Ju0OcL1oYqiHfh5ZW2+jTfeOD9UFvEgT9DlR91vWpUaf40E0pWtzVelQ+eEgBAYbgRE2BfYf/XVV3f77LNPfiZcaXyzzTZz22yzTX4erwGmYeElZ0KjCSLfJIXObg1W3xMeopyFXr/61a9allxRCJ2qjyODEkw5tUWEaKCyeAqjxSZF06v9RnQ4HSycqcC0aDyv6DCZFHknpNBp9xuNbdOGYAr7VD1v08b/aNunSUOwLeVntG1e9T6UnUtRv5Xdi+NNy08KnSnsM6zlJ0WZrLJ503Ox7TPa5YfnHpQ6s8oGg/T9iW3zquduap9uOsPwAgcffHC2Jky36+qcx7P7/PPP7wiVWLbIpB/+iZi+TzzxRLbYZ9V9mEFKqJTRIL9D0rsqX93OVYUB6XZtk/Ohh+lVV12VEURNdI3WNU0I+6233tptvvnmeRZvuOEGR3zrMllzzTUdzkG+dCP//LTh77AsFTkrhdeMxn7TOjNVmQy9i+l3UpcSbnXKKad0yy67bOZ45odYvf3227N110YDr6p7NG1njoc2YRUuTc81aXOccMIJboEFFshvyeyF+++/P98Pf7A+3nvf+978cMg55Cdq/Ojlm1alLqyruoXvqtKlc0JACAwnAiLsC+weEvL33HNP1lEgaegJwKKtLIQJEe57hYexDFPoxPP83e9+d/4ExA69/vrrs/3Qk4qQM1dccUW2cK4tPlvk7e57WaCIBrF5Q/ijxBxjUAOPfUgWk2eeecbtu+++tpth4g8SsM7Ajm+ExDE5++yzHSu7IzTkGB3nPquttpolcVdeeWXWEbQD4Bxbp+kerW3ThmBs+3R73iaN/7GwT5OGYBvKD/YZbZt3eyeKzqeo34ruY8ealh+7vmjbVGds+wxz+UlRJots3c+xFPYZ7fLD8w9KnVlli0H5/qSwedVzN7VPlc5FF13UHX300XmSsnA1eYIef4RhIMpihIfhn1ikk3Z1HRktL+Y2E/a77LKL+7//+78cTr5P/mBTfmKAfjQh7MM+Trd3g3efMuBLUy9uZoP4/Rj6UpD/o7XgrP8M4e8mdWbKMjlhwoSs3ikLo+rnn34lAx+shTYIMsxtwhT4N2lzELOe+tjkxhtvdKeffrrtjtiG6yb0E/qq7jdtRCaCA2FYnUEZ3AuyqV0hIAQGGAER9gXGwRN93XXXzc/403p9QuG1115zTHdl2m44BS5cmTyFTrxJ5phjjjyftlBT6An/u9/9zu25555ZOn9aNwcgCnzxvSxoPJkHy/zzz+8Y6Tay/9prr3WQ7QsuuKA7/vjjcxWEs6HhakI8fD56Jn6jOiQpjjrqKHffffe5nXbayW244YZ2iZs0aVK2eLAdSKHTdI/WtmlDMLZ9uj1vk8b/WNinSUOwDeUH+4y2zbu9E0XnU9RvRfexY03Lj11ftG2qM7Z9hrn8pCiTRbbu51gK+4x2+eH5B6XOrLLFoHx/Uti86rmb2qdKJ2suzTfffHmSqnjSeaKaP0ICk7Yj3vvMTg0lHDjwz5OeOORPPfVU5ozCmhZ+GEfS+o4p/rUxf88888wZIQvZ2K+Ae9OwK03uTRjLFVdcMb+UOhXv80GWJoQ9gzx+THqe75BDDsk8t8NnDb/tdv6ggw4qfEftfNE2nBVMmksuuSSrT4vSj/axJnVm6jJJvP/dd9/drbLKKpVwEK/8+9//fu4kVpl4FE6G743ff626/XhoE1Y9X9NzTdoc4SLpDI7xjhfNtApnF5HPIsfEOvnv5ZvWTV8YSrhovcFuOnReCAiB4UZAhH2B/fEcZ4q6yXXXXeeY/hh6dPiLHIUNzrBTkUKn751OXg8//HBHSJrQEx6y/rnnnssex/9gcsD3oGe/rKHh34vFwPAuoVM299xzd8SsDz3oww8V+SB8UDhTgSluRuxvt912jg+viT/DgWMpdNq9RmsbuyHY1D7dnrdJ438s7OO/1/5AU9Xz+ZiRbhDLD/mKXSbRGVtS1G9VeWxaflLojG2fYS4/Kcpklc2bnEthn9EuPzz3oNSZVTYYlO9PCptXPXdT+5TpDNtpf/7zn7NY0mXpezkO2YezhTlzcO3FF1+crTNUpCdsR1savMDxBg8ljCFcFMoxvGaY9w899FC3zDLL5BCEzkP5iQH6EfafzPmoWxaPOOIIt+SSS+bJcKLCgehnP/tZfgwseIemmGKK/Jj96DUkFJ7orF8GAW1CSCfCcAyKNKkzU5ZJ6gfa1rbGWzec6F+yzgZrW4y1NG1njoc2YQrsm7Q5yAeheKeddto8S3y/KNP+O8JitPz53yEuaELY9/pNyzNW8oM6irrKJAyzbMe1FQJCQAiUISDCvgCZcNESVrWnQenHbw8Xog09AyGf/ThrKXTSEMfbw+Tkk0/OFunxPeHDhWjLGhKmg46W37DFCx5SnxhsJoQAIhQQssQSS7gjjzzSTmUfUBYQMyF/5NPEOorHHnusY6E9hJFyBgAs5j/Xr7POOnZJ5h0EviYpdJru0do2bQjGtk+3523S+B8L+zRpCLah/GCf0bZ5t3ei6HyK+q3oPnasafmx64u2TXXGts8wl58UZbLI1v0cS2Gf0S4/PP+g1JlVthiU708Km1c9d1P7lOkMp/b7ziZl19Q5jvc7C3n6bcZu3oMhecF9wpmZ/r1ZMwnPW5+IaRrKxNc7Xn8Tp5147SZFa0DZuUHZNiXsZ5hhhiw+v/9u8EzErWaxSRyDbM2tomel34GTUR1h5jKOWBbCk2u4lhBERd6+dXSmSNOkzkxVJtELWe/bhz4gXvS/+tWvshj29CHxZvYJfQZewHWsQwwNc5swxbvZpM1BPsI1fjiGY9bf/va3LJQu69753yDOm/Q6wNvkm2b3KtuuscYamSOlnW/DQuCWV22FgBAYDARE2BfYIZyCxeI4L7zwQu51z4eCKewcMwkXmYF09kd/U+gMvUsYUJg4cWLeoCxaHd2PZVm0GEs4kk3HCBLFFgS6++67HWGBTIg178esD71Npppqqg6vKT6eNHr3339/U5HFoyMunUk4pRdCjFA+Jil0mu7R2jZtCMa2T7fnbdL4Hwv7NGkItqH8YJ/Rtnm3d6LofIr6reg+dqxp+bHri7ZNdca2zzCXnxRlssjW/RxLYZ/RLj88/6DUmVW2GJTvTwqbVz13U/sU6ST+PgS9kWa9EhhFOjkGSYIjBdiYPPvssxkxQRu5TMIwiqQ755xzHIujlkk44MBCljfddFNZ8qE+Hs5Qveyyy7IBj0EGpSlhzzNRd+688875+132nKypQJ+I8J5I3ZmYpi8cTKb/xOxl9A6SNKkzU5VJZiPMOuusOTyEPGU2TijUIcQlp64yYZYEi1aPpQxzmzAF7k3aHJYPeAZ/bTs7Hm7vvPNOt9xyy+UDQPA0H//4x8NkhftNv2mFyryDG2+8cbY+nx2ykMK2r60QEAJCoBsCIuwLEGLVeqZKmtDIm3766W3XXXrppY6FTXzBA8ifJhmGmkmhM/Sk4cPke38wTRMC3YT8kU+TIkI/bGD5Ommg7rDDDh3eJBtttFEWx990hoQ+x32vfqan4T1hnbwnn3zSsUCvL3js43VhUtQ5S6HT7jca26YNwRT2qXreJo1/9I22fZo0BNtSfkbb5lXvQ9m5FPVb2b043rT8pNCZwj7DWn5SlMkqmzc9F9s+o11+eO5BqTOrbDBI35/YNq967qb2KdL5mc98JgsjaOdwfsAJoh+hLUm9R4gQE7zkcVTp5m1MG5XQV75085gP13gIZ476uob9dzj4R/x6f4bqIOLTD2HP88w+++zZTF+fHPafE1IdJyFmH1sfqchhyb/G/x0OGNGPYTFMZloPmjSpM1OUSRaZ9Ql36oXtt9++tH4IZzExoLLFFluMaTz7pu3M8dAmTPFeN2lz+PlYfvnls3Jn/IF/jt82u8v/VodOhOE1tt/PN810lG3DdfkuuuiirI9cll7HhYAQEAIhAiLsQ0Te2Gch17IGLg0/puqF4odFKIqZlkInYWpsUdgwP3fccYdjsStf8CyhYWzy29/+1u211162m21p0C6wwAIdx2wHD5Pbb7/ddrMtBD4Lg5mwYBjeXL74H2n/ODgx8k1Hz5fQk6UozmQKnX4eUv9u2hBMYZ+qZ23S+EffaNvHv19dz6m2lJ/RtnnV+1B2LkX9VnYvjjctPyl0prCP/z77ee6nzvT1hL/9+41l+UlRJsNnjbHv4+Xra2qf0S4/5Nl/hrG0uY9f+HuQvj8+Xn4+m9rc11H0279fXfuEeiAhLrzwwtz7GNJsm2226WsRVEJXMEvS94Yl7jRrE7GtIz6hQvrQwSXUES4mmNr71uJuh/losl9FUjbR1+2akCitS1h105vyfL+EveWNEDhLLbWUW2yxxbIZIKyZRUhTZkkjvmOVhee0a8u24YxfyiLrBJjOsuvG6njTOjN2mQzLLHixKHCVnH/++e7tb397noRBkaeffjrfH+0fTduZ46FNmALrGN808kV7aemll3aLLLJIFgqHmV0MTBLVgPeH98gEj3vsUSUxvmlV+kMnxJgLvlfdV+eEgBAYPwiIsC+w5YQJE9wll1wy4gwNNRbDwSvcl3BBL2Kx02jyJYXOtdde2+2+++7+bbLf3J+YuHQkfQkbco8++mjHTALSQo7j7RdKWaM/bGjTIGYKri9hI8zOlY0y+x910n70ox8dEcswhU7LF1umj6+44op5KCD/3AMPPFA77qV/nf+7aUMwhX38fIW/w3fm5ptvdqeeemqYbMR+avuEN/TfmbrkRlvKz2jYfPHFF3fEgw2FzlIdL7IU9VuYF3+/afnxdYS/m+pMYZ9hLT8pymRoZ77XePOFAoFja7OE58L92PYZ7fLD8wxKnRli6+8P0vcnts395yz63cQ+oR7ah5QpkyKHCjtXZ8t7yvd/zjnnzJPjqQxZHzpe5AkKfrC4rO8lWdTG8y8L13io2w7xdfTye9VVV808OXu5piztVlttVepVXHZNv8eZRWFhLGOFQOo3T1XXh/2IuovOVukMz4VhX2jbQAhXSVh+aFsSEtRf1Lbq+qJzMb4/RXrtWNM6M3aZZNYMsbtN6sz0CJ21GBi8/vrrTcWILeQsAzShYCec1vqVYWoTpu7zYosY37RuNg2dCC+//PIsrGjZdbG+aWX6Oe63HXg3WRz39ddfr7pE54SAEBACHQiIsO+A4387vieGHSVmJuFZQmHhIhbNMSkK88K52DqLpjFyn7LRWxYHm2eeeUiSSVFsyzDWGgkh/j/2sY+NIM0553cM2C/yiDj66KMdHku+/OEPf8jWAfCP8TucBYBHGB2eUFLo9O/BgrgsjFskjNYzat+PNG0IprBP1XM0bfyntk+Y5yYNwbaUn9GweViODd+imTp2LtzGrt9C/f5+0/Lj6wh/N9WZwj7DWn5SlMnQzhCO2DqUstlzYTr2U9hnNMsPzzAodSZ5KZNB+v6ksHnZc3O8iX18fRC2kHC2GB9EAfHNcehoKiGxSvtsn332cXgy9yKnnHKKg7g0Ia418a3LBEeZlVZaKT8NAXLllVfm+7F/tJ2wJx64P6hCOerH7rHxDfWF71UKwj70cmU9L8pHmYSDRKTjvb3lllvKLql1PMb3p+pGTevM2GWSeoHFQk2KwqXaOduGoWS6lXP6pYSAKpLNNtus6HBPx4apTZi6zwvw/X7T6hgvbEcVcRK+nrDuafpN83X6v/kOE4HB1pDppZ3p69FvISAEhhsBEfYl9sdjaK211srPVk0lDhvHEOO33XZbfq39SKHzrLPOcrPNNpvdIvP+D2PCc5JRZD6W5nVD542punjf+MLUMDzf7ePCOaZKciwUSHg6sSZlU0yZunbYYYdZsmxbFrOUEDnrrbdenvYnP/mJO/744/N9+5FCp+lmm7rx0rQhmMI+/nOHv5s2/lPbJ8xn04ZgG8rPaNg8BmGfon4L7Wz7TcuPXV+0baozhX2Gtfxgl9hlMrR1DMIkhX1Gs/yAyaDUmaF9/P1B+v6ksLn/rOHvpvYxPSF2kyZN6giJaOnqbovieBMfP5xxWkdfuDBqtxA35557bscMMEJrpAxJwmwzHEWsvVznmcrSUJ+NtjdlGPM/BtFc9nwxjoekWWzCHk/sr33ta3m/Bickwq+Fs5DtWcJwLhzvtjCyXdttG+P7U3WPsNzXnY0Su0yGaymUOWnZs9DnpM6zAUaOM3uRmeBlMqiEfRvbhKn7vNiw329a2Xtgx1dZZZVsrQrbLwr7a+fYxvym+Xr93yyAe9BBB+WHenGCyi/SDyEgBIYeARH2Ja/AzDPPPCIWOx4ahEPxZf3113e77rprfqjMI5wEKXQSP54pYCbcn0ZMGEs0DNtQNgsAPeFHjJAYEOy+MABAA9ZfjLfKYyUc9S5aNAzCjI6FP1hQRuyTlxQ67RlTN16akoPkL4V97LnDbdPGP3pS2ifMZ9OGYFvKT2qbxyDsU9RvoZ1tv5/yYzrCbT86U9hnWMtPijLp2zoWYRLbPqNZfsBjkOpM3z7+70H7/sS2uf+s4e+m9jE9fogLHDRoF+JU0UTChWvRR5vyF7/4RRN1mZMJRLYJ+nDWePHFF+1Qvl1hhRUc9zchLWQrbV1JMQJhmM468cOLNY3O0X4Ie/oLvBNlgkMToVZYz8Hk1ltvdSeffLLtdmzDPh0nKUv0b2JIrO9PWV6a1pngFLNMFq3LUrQOmj3Hzjvv7CZOnGi72WAKoUOqZFAJe/LctjZh6j4vmPTzTetWzpmBhbOizx+URRsgL7G/aegsEpwVGew3ST3YbPfRVggIgfGFwJgR9sQTDBc3XXnllTsqNuKmh/Hrnn/++RGkuZmEkUx/ISyO88H3j1199dXuqaeeskuyLY3ZojjNxM+bffbZ87R0EI444oh8xJ/7HXjggR0fiG5eTLF1htOtyCyjykwxZgEWzuMptOmmm+bPwY+qhtOSSy6ZPad/AQ1cpisyrRZvFZ6bxa1MaDBXTbcOY0FyHYvTXnvttVlje6655spiQ77tbW8zlVlMVBpkZZJCp90rZuNlxhlndKxu7wvHttxyy/wQAyyQAb68+uqrDu+YUFLYh3vELpMp7MP7zDRbPFh8YSFo84bjXTz77LP909lvymY4kNWW8pPK5gZSDMIeXbHrN3TGLj8pdKawz7CWnxRlEpubxCJMUtgnRflpQ52Jbdrw/Ulh89j2AcsNN9zQ7bTTTvzM5KGHHnKHH3647fa0LSLFCAvy2GOP1dJz3XXXFZLrzJzE5ia0r3GK8T3n+dbvtdde+bedtLfffnvWfrXrtC1GwA8vgic5/YDR9vQvylnsftoZZ5zh3vrWt7orrrgi6y9aG48+BX1K+oC+1zbtQ8rGX/7ylxHZY/0uvGF90o++If3GOnLvvfd2DQ8V6/tDfmLXmbHL5Ne//nU37bTT5tDxHrIIth/OCqypYxgo8XGvciozhUV1k53rNSRO7HZmW9qEhlfMPm+Kbxp9FMoiW2Zk2YAtM/3XXHNNt+6669qjZFvKN2ujFEnRexPjm1Z0L8LhWP3z0ksvdXyXi9LrmBAQAkKgCIExI+yJBU+DqleBsKfTVCRlpFNRWv8YgwJ0lEMJpzLZ+ddeey37aZWwHacxQt5eeOEFOzRim0InHv40dkJhMbApp5yyoxFEGvKHN1OVFNmHhi4ksr9YmOkgBBChgMpkuummywj6kGgFMzoR4XH0lIUWsnuk0Gm6YzZeyuxj9yrbgvfmm29eeDq2fbhJkc7CmwcHy8pkCvssssgijunSTYTBtgcffHDEpWX2GaTyQ6aL7NNPmfSBKKs7e52+OZr1m5//ot9V5afM5kV6/GNVOmPbZ5jLT5l9+imTZsdYhEkK+6QoP22uM81mVdvR/P6ksHkK+xD7GccKE0hvHDmaSFl5qauLtmZRmxgv8BNPPDEnM0wfTiGQLczeDNuatL2JLU49IKlGIAxJEiukS/Vdu58ta2t0u7KsnxaGS+IbTZ8C0rBIIIspH0VSROQVpSs7hgfxJZdcUnY6O15WnprEti5qc1Te/L8ny+rM2GUSpy7a6z4RTxYgW5ntg40o56GtKOeEdeq2kHWVvXol7MvaHN3wbHub0J4vZp83xTctnOECd8BM//Dd4nmwyTHHHOPuuecee7yObVkZ7EhUsVP2TQsvYSBh7733zg9T90HgS4SAEBACvSIgwv4NxMoagoC5zTbbuDoffj4QLFLKwjrdJIVO7s0Ht5vQ0WFQodvUaDzd8dDxp5GW6X766aezxWbLztvxJZZYIvPcL/rAWhrb/uhHP3I0xLtJCp3cM2bjJUVDMIV9Yjf+wTG2fVI0BMlnG8pPCpvz7EhZJ7pXwh5dseu3FOUnhc4U9hnW8sN7FLtMohMp66w1IUxi24f8xS4/bakz2/D9wT6xbR7bPuGCqXU8VXmuMikrL2Xpw+NV5AYzWCHt67QzIfFIe9ddd4W30H4BArSzIZDNsahbPOcCFUkOlbU1ut2srJ8WEvZVesp02DVVBLClqdq2nbDn2WKXSWYSb7HFFoXEahGWELGESKpTzqvsVaff7t9/WNuEhkHMPm/sbxp5DAl7y3e4hYvhm1W1OHTKb5qfH75X8803X3aIfCmUm4+OfgsBIdALAmNG2Icr0tfNdJlnANfHbghanljIBJK7rFOB9xCjuRDXdSWFzh133DGLARh6K5AnPhZMYSZUTrjQbFme8W5ieujiiy9e2NiiYcV0Z0Lb1BVmVRx66KEdC+X61zKgQDiTolAwfjr/dwqd888/f+kCbSeccIK78847/SxU/mb6LVPUexVsVuZhj67Y9klRJslnTPswBbhoEWLu003KPOztujaUn9g2t2f3p23aMbZNCHuui1m/pSg/KXTy3CnsM6zlBzxjl0l0Eg5u3nnn5WeHNCHsURDTPpahmOWnLXVmG74/Zp+YNo9tHz8UCvmlDdc01jzX90tuEJagKPwIuhFmAuCFC6ZlzhyExzz66KNHhLT7jwb9L0OA2Qgbb7xxfrrbIp55woQ/YvfT9txzzyxMog1MFGWdup0BwXANsjBtFQEcpi3aP++88xzrc1VJzO9PqjozdplkEGD//ffvCIEVYkR/5yc/+Yk7/fTTa/dRWb+NNW+KpFfCfljbhIZdzD5v7G8aeaTczDPPPKXfCN4fBqdx9ChaC8Wek23qbxr3oI1Jnk1uvPHG7N22fW2FgBAQAr0gMGaEfS+ZHJS0Sy21lFtmmWWyDgYfB6brEdu9KP593TzH1skUsTXWWMMttNBC2XQxQs2QvxtuuMG9/PLLdbPVkQ7P0bXXXtuxKKOFA3r88ccdH6CmMTHpnJFPGnKTJ0/OQu3QmCYGZFNJobNpXkbzuhT2SZH/NtinLeWnLTaPXb+leC9T6Exhn2EtPynKZAqbp7BPG8rPMNsnhc37eTfx/icOvEmVg4ulGaQtRA/r/RAmg3bhz3/+c/fwww8rBE5DIzEAQsxwczaiL/DJT36yobbBvox3nxAsLHbK95dZxKzjhfMPhL2kGQIxyyQDAXhyo3OWWWbJFpZ97rnnHANyTzzxxLgu58PaJmz21hVfhTMii8tC3MMdwG9Azv/617/OPOoHKVQajn22TiMhoLbffvs87n7x0+moEBACQqAcARH25djojBAQAkJACAgBISAEhIAQGHgEWPcHMsPkuOOOqxVawtJrO/4QeP/73+/wQjc55JBDOhb2tePaCgEhIASEQP8IhLMVWHz58ssv71+xNAgBITC0CIiwH1rT68GFgBAQAkJACAgBISAE2o4AHodnnnlm/hh4GO+88875vn4MLwKETplzzjkzAG666aaO92R4UdGTCwEhIATiI7Dvvvu6lVdeOVPMDIDddtst/k2kUQgIgaFCQIT9UJlbDysEhIAQEAJCQAgIASEw3hAgnIzF8n7mmWccC41KhIAQEAJCQAgIASEgBISAEGgnAiLs22k35VoICAEhIASEgBAQAkJACAgBISAEhIAQEAJCQAgIASEgBMYZAiLsx5lB9ThCQAgIASEgBISAEBACQkAICAEhIASEgBAQAkJACAgBIdBOBETYt9NuyrUQEAJCQAgIASEgBISAEBACQkAICAEhIASEgBAQAkJACIwzBETYjzOD6nGEgBAQAkJACAgBISAEhIAQEAJCQAgIASEgBISAEBACQqCdCIiwb6fdlGshIASEgBAQAkJACAgBISAEhIAQEAJCQAgIASEgBISAEBhnCIiwH2cG1eMIASEgBISAEBACQkAICAEhIASEgBAQAkJACAgBISAEhEA7ERBh3067KddCQAgIASEgBISAEBACQkAICAEhIASEgBAQAkJACAgBITDOEBBhP84MqscRAkJACAgBISAEhIAQEAJCQAgIASEgBISAEBACQkAICIF2IiDCvp12U66FgBAQAkJACAgBISAEhIAQEAJCQAgIASEgBISAEBACQmCcISDCfpwZVI8jBISAEBACQkAICAEhIASEgBAQAkJACAgBISAEhIAQEALtRECEfTvtplwLASEgBISAEBACQkAICAEhIASEgBAQAkJACAgBISAEhMA4Q0CE/TgzqB5HCAgBISAEhIAQEAJCQAgIASEgBISAEBACQkAICAEhIATaiYAI+3baTbkWAkJACAgBISAEhIAQEAJCQAgIASEgBISAEBACQkAICIFxhoAI+3FmUD2OEBACQkAICAEhIASEgBAQAkJACAgBISAEhIAQEAJCQAi0EwER9u20m3ItBISAEBACQkAICAEhIASEgBAQAkJACAgBISAEhIAQEALjDAER9uPMoHocISAEhIAQEAJCQAgIASEgBISAEBACQkAICAEhIASEgBBoJwIi7NtpN+VaCAgBISAEhIAQEAJCQAgIASEgBISAEBACQkAICAEhIATGGQIi7MeZQfU4QkAICAEhIASEgBAQAkJACAgBISAEhIAQEAJCQAgIASHQTgRE2LfTbsq1EBACQkAICAEhIASEgBAQAkJACAgBISAEhIAQEAJCQAiMMwRE2I8zg+pxhIAQEAJCQAgIASEgBISAEBACQkAICAEhIASEgBAQAkKgnQiIsG+n3ZRrISAEhIAQEAJCQAgIASEgBISAEBACQkAICAEhIASEgBAYZwiIsB9nBtXjCAEhIASEgBAQAkJACAgBISAEhIAQGDQEJkyY4Kacckr397//fdCypvwIASEgBISAEBgoBAaGsJ9uuunc9ttv72aeeeYcoBtuuMHddttt+X6vP+aff3734Q9/2E011VT5peecc4777W9/m+/3+mPVVVd1a621lnvTm96UXfqPf/zDHXfccb2q6UgfWycNoS222MItvPDC+X2eeOIJ941vfCPf7/VHW+yTwua9YtUtfVvs0xabD2v5SWGfbu9uk/NtsE9bymSK+m1Y7dPkXe52zaDbZ4MNNnATJ050s846q5tiiimyx3n11VfdM888477zne+4e+65p9sjdpx/61vf6rbccku3xhpruLe97W2Zzn/9618OnQ8++KD75je/6X7zm990XNNtZ4455nDbbrutW3rppR363/zmNzt0vvzyy27SpEnuW9/6lps8eXI3NR3nl1pqqSyf2AeSCHnttdfciy++6K6++mp35ZVXdqSvs5NCZ2z71HmO8ZxmwQUXdLvttlvHI95+++3usssu6zjm7yy++OJus8028w+5P/zhD+6ss87qOFa0s8MOO7h55503P3X22We7559/Pt/feeed3aKLLprv248//elP7qmnnnK//OUv3SOPPJK963ZutLYzzDCD++xnP5vXC3fffbf79re/3fPt9913X/eOd7wjv+5Tn/pU9pt+2BFHHOHe8pa35Ofq/qBuuuuuu/LkhxxyiCO/MQTcTz/99EzVNtts45Zddtlc7WmnneaefvrpfL/oB89E3Yf885//dAceeGBRsijH1l9/fbfiiit26Lr55psdf2WywgoruP/7v//rOP34449ndXPHwYKdJuWnQE12CIwoiwsttJCbfvrp8/fg3//+d/a9+Mtf/uLuvfferD4uw7yJfWjb8V7PNNNMedYoz/3223Nl+iEEhIAQEAJCIDECY07YzzLLLO4Tn/iEW2aZZXIS3J6ZRsipp55qu7W3NLg/9rGPuXnmmWfENZ///Od77pSihIbSVltt5SDJfKGxsfnmm/uHav+OrZOGMB2GddZZJ28MWWZooIBzr9IW+6Swea9YdUvfFvu0xebDWn5S2Kfbu9vkfBvs05YymaJ+G1b7NHmXu10z6PaB3DrmmGPc7LPPXvko999/vzv66KPd66+/XpmOkzzzwQcf3OEQEV5E+wiyjb86svHGG2eOG+YQUXQNpNixxx7r7rvvvqLTHcfQ8+lPf9pBWlXJCy+84A466KCMwK9Kx7kUOlPYp9tzDMP5/fbbzzEg6ctf//rXrJ3sH/N/Q6ozqBXKkUce6R544IHwcMc+7zkDTCaQuQxcmUAAzzXXXLZbumWA6pZbbnFnnHGGowyNhkCy+/2t5557zu2xxx493xqS30h5v38044wzOhymmgi4Xnzxxfml3/3ud0f0F/OTPf5gsIT+IhLa5wtf+IJj4KJKfJv7z1t1TdNzX/ziFx2Djr74+feP2+/wmThetz/YpPzYfW1LfYkz3kYbbdRRNux80ZZBrt13333EqfBZ6tjnxBNPdPPNN1+uCxudfPLJfTkD5sr0QwgIASEgBITAKCAwZoT93HPPnRHIiyyySGnDq1fCnk7ZRz/6UTfbbLOVQtcLYU9DY9NNN3WbbLKJm3rqqQt19tpAS6ETz4WddtrJrbbaaqUNoroNNHvINtiHvMa2uT1/zG1b7NMGmw9z+Ulhn5jvObraYp+2lMnY9dsw2yf2u46+NtgHAvErX/lKbY/Uhx56yB1++OGVcEHunXTSSaXtjfDiCy64wF1xxRXh4Y79ddddt7ZTAe2uAw44wD355JMdOsIdvF2XX3758HDhPkQuxB0DAlUSW2cK+1Tlf5jO8d5R14eCp+/vf//78HC2X0bYMzN3r732KrzGDvrkLceaEvamj3cSUvLRRx+1Q0m3PhH+t7/9zX3kIx/p+X7f+9738muYFbPjjjtm+yLsc1ga/ygi7FG26667Fg42TjPNNO7rX//6iD523f5gk/ITPtxnPvOZrgOm4TWvvPKK22677cLDPQ+oMEjtzzRH4Ze//GX34x//eIRuHRACQkAICAEhMKgIjAlhzxTJlVdeuSsmvRD2TD3F87Sb1CXs8c4//vjjc0+RMr29EPYpdDKFmg4GREyV1G2goaMN9iGfsW2OztjSFvu0webDXH5S2Cf2u94W+7SlTMau34bZPrHfdfS1wT7kc5999nGrr746P3MhTM3PfvazLPwFbTE/XACJ8OwlJGGZhM9OOwhSEQ/kOeecMwvb4Ici5DxOBYQ9KBIcIi688MKOdgzEOSF6COe32GKLOULQ+O0cdOGgUSYrrbRSRur751966SV35513OshIQu4Q8sEXvGkhSMskhc4U9inL/zAdx3GnLIwNIZDOP//8QjjKCHsSE1qDsDVl0ithT7ucsJrMsJh22mk73m//HpDghIJKLYTNNOckvPwJKdqLMIPnzDPPzC8h3Mz++++f7TNwcsIJJ+Tn7Afhufxyjcd4OGjGs9966612ifvSl76U5zM/6P3wnbaoe8C5TAi/wowdpIkHt2/zXvqDZfmpOl5G2BPW66tf/eqISwlXVmTDOv3BpuXHzwThY8NZGrzvzB4hLA/1MSFyFlhggWz79re/Pbs8BmF/6KGHZjP3/fzUGTj20+u3EBACQkAICIFBQGBMCPuwswcQNNDoRPlxCXsh7H3PEAOWDh2NT5ueyfG6hD1eWUWxCOno4ulq0ksDLYXOT37yk1n8WMsPW/JEQ9mfOlmngWY62mAf8hrb5vb8MbdtsU8bbD7M5SeFfWK+5+hqi33aUiZj12/DbJ/Y7zr62mAf8umHqGD/jjvucIQJ8OWUU07paNdUeRPT/iG9L+xDwpjgTQvp75P211xzTebpb2n8LbGJ/bjhkIV77rlnhxc07y+EqU/uEcuamN9FEpJbf/zjHzNPVNpHJnjUM4Bnwn0JfVgWEiiFztj2sWcZ9i2e3R/4wAcKYahqD1cR9szoYPC8THzyljTdPOzDkB70fwgf8r73va/jFryz9EeqBgs6Lmi4ExLWlIWQPK9SHQ5oFdU14fV4gDNYYcIgXNnAnqXptvW9/Mk/z1FHwucP7VOkw7d5L/3BIl3djoX1j6X/85//nDlu2b5tGbDyBy/seNX7b2malh+7nm1oW8JDEVrKr4P99MwSJ6wrs44Y4A2lrn0YJFpllVU6LsdOfliljpPaEQJCQAgIASEwwAiMOWHPaPsPfvCDrFO59dZbZyFoDK+mhD0dMxoKeGSEDZymhD3eAJBmbP0OVi8NtJAwiaHTJ5/IC95jTH/HU8GPR1mngWa4++TgoNqHvPqESQyb2/PH3LbFPm2w+TCXnxT2ifmeo6st9mlLmYxdvw2zfWK/6+hrg30gQFgE0oTv5C677GK7+RZywzxh7SBkNt6uoRAT3l/4sIyUC0PHVIXYOPfcczucNfCgZXHQUL72ta91rCMEAQQpGkrosQ8Rzxo+PL8vtJPQ6Q8CEGf7qquu8pNlv1PoTGGfERkf0gM+WYn9cWKxGRW0lQm58fe//30EOlWEPYn5fpQtpOyTt6TtlbDnGoRQoXgIs+iySS9teLum1y1rUviLrlLW6afUFdbzoh9nmdhkiQAAQABJREFUgsd+1QK/pAtJXRH2ht7Ird+f5R1mYNHWTCDmu7/AMeutUbchpEWsnqvzLjUtP9mN3vhH3erPYiE8Era1vFi6oi0DvfQ9Q6lD2IPD2muv3XFp1YyajoTaEQJCQAgIASEwgAiMCWHPlEkaE3hBfP/7388/4Ntuu21fhD2NEDp+/iJBfgMH/OsS9ky/Puyww7Jp3jRcnn322dx8TQn7FDppnOCNw+AEzz558uQsn+ECUnUaaPaAbbAPeYUwiWlze/6Y27bYpw02H+byk8I+Md9zdLXFPm0pk7Hrt2G2T+x3HX1tsE/Y/rnooouyfPt4TJgwISPNLBSGnSPOL/F+Q/HbP5wrigdO+CVIdyOITAdtqp///Oe2m23nnXfeLK0dhKjB4z4U1hIK4xqXecSTjvQmeCbjnR8K7UHIUV/KFttMoTOFffxnGdbfEN2Qxfb+4RnPAJD//kAmQuSFEhL2eGj7s3SZ0cHMjiKJRdije9FFF80WgPbvs/fee3f0RfxzMX6H73i30FjhPf3BcM4VlffwGhH2ISLl+359AfH98MMPZ4t/c8X111/fEY6I9QdYxBsh7A8zo4zc79Yf7Kf8ZDd84x8zl2wxX45NmjQpc6Cz80223Qh7vPM/+MEPdqgOcek4qR0hIASEgBAQAi1AYEwIe2IZsphSKP0Q9ozmM4Ifit/A4Vxdwp60ZTr9DiuNJrxK6kpsndaRCKet9kPYt90+/di8rh3rpmuLfdpu86ZlcpjtU/cd7iVdG+q3tti8DMt+6rcynYNUflLYp5d3uG7aMiwHyT7+LACeq8hrnoU0GfQPhfjCYViC97znPR1kZVmsYYh+YlOH8tOf/jSPF23nwvsXEaI4eOD5boSTXcuWmYTMxvQlvD+k4OWXX+4nyRZCZEHEIiHuM4MBvqTQGds+fn6H+TehcAjpYUIMdAagzOOY42XhbULC/ne/+10WWtPCddLmZ7bGCy+8YOrzbUzCHqXhO0fYqTAcVX7zCD/CkDaUGcqOyX777efe/e532242E8UvV+EAWJ2QOiLsczi7/vC/LbyHrLNmdZi/wC+KiGlva5NQd+LdbvVnN8K+n/JjDxEO/lx33XWla0rYNd22VYT9FltsMSL0Udnsr2730XkhIASEgBAQAoOEwJgQ9mUA9EPYl+n0Gzik6YWwL9PZlNwo08fx2Dr7IezL8tkW+6SweRkmTY+3xT5tsfmwlp8U9mn6Tldd1wb7tKVMpqjfhtU+Ve9s03ODYh8GYVlkz6QoJA3e7cSzN09kS8u2KPYz3ot4MZoUhaQp8oS39EUk6ec+97ncS5R05513nvvhD39ol2TbY445xi288MIdx2zn0ksvdd/85jdtN9v6i2dyAPLWd+iAuAKbcFaBKSnyZI6tM4V9LP/Dvg3LICQ8cb7xqmegDWFAhkU5IT59KSLsmQ3MmgomLIZMXyKU2IQ9A2YbbrhhfpuqtSXyRH388MOooOauu+5yxx13XK7R/05w8JlnnukIueWHUXnttdcyfPOLS36IsC8BpuCw/16bsxhx2aeYYoostYVrmnnmmfP1QkjHe87sqrqEvX8fFPdSfizb73//+zvKDOF6mN3Yj5QR9htttNGIBcjvu+8+d9RRR/VzO10rBISAEBACQmAgEBBh38AMfqPVGk0N1HRcElvnMJNPYWMzxiBNh7Ei7LTFPikI4RT2Gdbyk8I+EV7vESraYJ+2lMlhLT8p7DPiRY1wYFDs8653vavDm5242xA6vvgevMTzhtCxGQ5FbZuQzIRYh2A3CT3hIRjnmmsuO515JX/84x/P9/kRLngbxs1eYYUVci9S0oc6i7yOfeIUYhaPeV8g5Ndcc83sEM9JrH7zRuVg0WKTsXWmsI//jMP6m8EnSEwjJ5nNa4NM4foLJ5xwQrbuk49V+I7jYQ9ZzwAPgywI7wxkerg4qv+OkK5pDHuuRcJ1R4oG0f6TMt5/f9aHP8DGQtJ4avsS5scf1KJM+SFR/Ov83yLsfTSqf/vfFqufDz/88CwcIVfaum/gbotpmw39d7PKw77f8mNPwGK3DOD4Ql0N6V62qLeftuh3EWE//fTTjxgIePTRRx3rMUiEgBAQAkJACIwHBETYN7BibPKJLMTWmYLcSEEO+g1QcIhBrqfQSd5iSlvs0xabD2v5SWGfmO+56WqDfdpSJlPUb8NqH3s/Y24HxT6rr76622efffJH+8UvfuEOOuigfH+zzTbriBWPJ+0ee+yRk5IkpH7xF+Yk/AIEugmhRvA+NvE94SHKCR1CaAaTohA64YKzftgeSFcIPVt8E6KJRSx33XVXU+keeughB2nli5+nMCZ+OKvgpptucpCRSy+9dK6iyMs/ts4U9skfYIh/hGFdfC/xkAC///77HTM8fCkj7MMwIcTEZ50GX3xSlOP9EvbMBmBWgC+U25Tiz0JgVgJ4IGFMcssD50mH+GR/WN9Y+nA7yIQ9eYUYrxJ/dpKR6FXp+znnf1vsXn6YMptF5depDMoSDsp/N6sI+37Lj/98/iCXHac+ptxdffXV2daO19mGhP21117r1l133Y4ZYkUD03V0K40QEAJCQAgIgUFFQIR9A8vEJjfIQmydw0w++Y1asI0xCICemNIW+6QghFPYZ1jLTwr7xHzPTVcb7NOWMjms5SeFfez9jLkdFPuEhLwfxiP0hGchWBaI9OMeg8mnPvWpLNa34YPnuR/DmsWwWdQPCYkeyJorrriig8Qr8naH9J9qqqnsFtmaQEaS+YtYcowBCDz2LW4zF4VhOfCU9wcJwtjOZ599tptlllmy+zGAwOKM3Ge11VbL88BipD5RmkJnCvvkDzDEP3iP/cEX34secvWSSy7JCb5wMAfYygh7zvnvKu8y744/oOWToqTvl7BHhz9QxH44iMaxmEKIrPnmmy9T6XvQh4N1ds+vfOUr7pprrskG1fzQVHVjlg86YW/PWWdrJHqdtE3S+N8W/15++4r3/YADDsjUk4bZRXi0++9mFWHfb/nxn4tyiL4yIX/MxLjzzjuzchnOWAmvCwn78Dz7v/rVrzq+D0VpdEwICAEhIASEQJsQEGHfwFp+48hvNDVQlV8SW2cKciMFOeg3QAEjBrmeQmduqEg/2mKftth8WMtPCvtEesU71LTBPm0pkynqt2G1T8dLGmlnUOyDdzvehyYWLoF9n3gn1jQLEk6ePHlEeBo8iPEkNjnjjDPcHHPMYbv59zr0hLcwIiT0iSL2Qw9h3yvXb0/NP//8DvLJPFjxpoRsX3DBBbPFFtGFhKE3Fl988Q6vaZ+cCklyYhwT6ziMFT5p0iSHHU1S6ExhH8vvMG99Up33icUo2ZqwSDF1vUkYgqmKsGcRVfSZ4LmMB7NJ+K7HIOz98sF9iANOPPBUsv/++7tVVlklU++XR3+gC496W4TXZjAsssgiWX1g+TIi3/bLtiLsy5AZedz/tvi2YebUcsstl11AfW4x7X/5y1+6z372s9lx/93068TwLv2Wn1Af654wsGX1eHje33/66aezd+jFF1/0D+e/6xD2JK777uWK9UMICAEhIASEwAAjIMK+gXFikxtkIbbOYSaf/EYt2MYYBEBPTGmLfVIQwinsM6zlJ4V9Yr7npqsN9mlLmRzW8pPCPvZ+xtwOin3wRifsiol5vIae8D65Eebd96BHj0/asU8oGkLShJ7wxPx+7rnnSNLRtmF/88037yBQfULSJ6H8exGHfMc3Fo7l/Nxzz50NLKALCT3ow5j35INQP+GsAj8cynbbbedYLNfEn43AsRQ6U9jH8j+s23Awp2iR1tDWhESCCDSpIuwnTJiQednbOg+Qo9tss022gC3X+6Qo+ykIe8oaYT9SSbhoNOGnIFD9csrsE8oj8sILLzjWpVh//fU7QlXtt99+DgK2mwwyYX/HHXe4X//615WPwIKuJn79Zcdibv362b/XEkss4Y488sgRt+K95v1G/HezjLCPUX6ymwX/+HbzHjHw2Y24Z+YK65r4A8WmroywBwtfLzoIrdbNY9/0aisEhIAQEAJCYJAREGHfwDqxySeyEFtnCnIjBTnoN0DBIQa5nkIneYspbbFPW2w+rOUnhX1ivuemqw32aUuZTFG/Dat97P2MuR0U++DVuPHGG+ePhicseYMgs5jwYbzf0IOe+N4Q2yZ43BMD3uTkk0/OyEPfEz5ciNYn+nySyXSwQKh5hHIML3hI/a233tqSZGEVCNuDhOTU73//e7fbbrvlacmfH1vc4nAfe+yxjoVeEUJ9QDhaOBOuX2eddXIdN9xwgwMLkxQ6U9jH8jus27322su9733vyx+fkEyEZvJl9tlndwxEmbz00kvZDAvbryLsSROev/zyy7MyxTmfFGU/BWHPbJiURGQ4m4TZOBD21B0IYYQgQy+88MJs38p0OEslHJjLEhf8G2TCvmjx6fARfJsbFmGaWPv+tyW8l+8Zz/0grRlMIB3i57OMsI9RfrKblfxjoGu99dbLBkAJu2SLOIfJyTPvmK2NYOeLCHtmWBG6jZkuNpBGegaLGDSSCAEhIASEgBBoOwIi7BtYMDa5QRZi6xxm8slv1IJtjEEA9MSUttgnBSGcwj7DWn5S2Cfme2662mCftpTJYS0/Kexj72fM7aDYJ1wk8pFHHsm8Yc3rHlKEsCx4yJr4ixVyDCIbQtwEAnLJJZe03YyonDhxYh4TPiQ/SejH4C6KGR4SdngQQ7gTZge5++67sxA+2c4b/4g1v++++9qu88M+cJB4+JBXJsSph6Al1IfJ6aef7m688UbbdYRFWXHFFfN9BhEguExS6ExhH8vvsG5ZLHj66afPHx8CEi/7UIi1boNWnPMXOg4JeT+8E2khBbne3k/eab7DlCefFCVtv4Q9Hv3E3PelLhHuX9PLb56P77XJN77xjeyZzZPcyhvHp5566iwZhCkDbBaWpaicm75wG5b/GAMSfp3jx+EP7x3uh4Rwmwj7cI2BcNFf/90sI+xjlJ8Q06p9Zj1tuOGG2ewMFlj2he/VIYcc4h/KZsKwhokJM6/4RhHO7f3vf79jZpcvzARhPRKJEBACQkAICIE2IyDCvoH1YpNPZCG2zhTkRgpyMAW5kUJng9ek8pK22KctNh/W8pPCPpUvbsOTbbBPW8pkivptWO3T8HWuvGxQ7LPsssu6gw8+OM8rZLpPZl566aUZ8ZgneOOHT8JxPCQH9957b7fmmmvml0D22wKuHCReMoSeCYQeOk2KCH08I2eddVZLkg0gmE6Ivx122CHziLcEG220URZz3/ZDQp/jvlc/nqaELrGFbZ988snMI9OuZ0s4CTz3TfxQEnYsts4U9rG8DuM2XBgYDP74xz8WQkFaX/yy0I2w57rQE5kBIkhinxQlXb+EfRiihEEBymRq8We9MLA122yzZeFMuO9ll12WlWkcYYhbj/DcDHjZ7Bti7BNrv46IsK+D0n/S+N+W8F1YeOGF3THHHJMrC9cf8d/NIsI+VvnJM9Djj3DAIXw+1IUDKscdd5xj5pgJ+wsttJDtZrMMGJQuqwfyhPohBISAEBACQmCAERBh38A4sckNshBb5zCTT36jFmzlYQ8KzSQFIZzCPsNaflLYp9mbUn1VG+wzzHXmsNqn+q1tdnZQ6jcWh/XDuvhPA4Gxyy67+Iey3z5RB9H94Q9/uCMNXrRlhCHxnk888cSO9CwcCx4mRTHFCaezwAILWJKObUg6cRICn4UMTa655ppskUHbZ+u/z/5xnol424RR8IX7GNnIcQY6Hn30UT9JdJ0p7NOR4SHbCb+FvTy+rXPANXUI+2mmmSabXWJxs5nFQWx8nxRFV7+EfTg4VTTgxX1iyznnnONmnHHGTC2hqOaZZx5nHtC2SC91g3nd4w2N57MNCPrrQ3TLmwj7bgj977z/bSkitHkvmZWB4H3ui/9uFhH2scqPf89eflOWGNz1Z76Esy1Cwj6cARGuU8L9i745veRLaYWAEBACQkAIjDUCIuwbWMDvDBY1mhqo7OgMxtA5zOST36jFFk0IexqPeAzZtGffpg888EC20J1/rNffbbFP2Ii/+eab3amnntrr43akj2GfDoVv7MQuk8NmH+LWzjDDDCGsWRzQGAvctcE+bbH5sJafWPZh0VKfnLWXnni5FifdjjXZDop9isJp8Dy0Lw444ACHp7kv4WKuxHen/vdl7bXXLvScJS0x2SHEfQm/H5Dgvtc/adnH2zwUC70RHg/xheTB69cXQiEYwegfv+iiizLve/8Yv/36if2QKOJYbJ0p7EM+h1XC9Rd6wYEywWAU4VPqEPboDj2CWbyZa/02Y7+EPR7TeE6bUD8ddthhtpts69+XkFjMgKFN7A/i+fUF5DAzWCyGeNHaAWWZFWFfhszI437d12s/sRthH6v8jMx1/SP+rA2uCj3ouxH2XBMOcnHMZsDwWyIEhIAQEAJCoG0IiLBvYDG/c9dro6nsdrF1xiI3/PyGne9BJW/9Ri35b0LYszgdi9QVCR6Bd955Z9Gp2sfaYp+22HxYy08s+/idOf8lLvKa9c/X/d0G+7SlTMao30K7DZN9GHDE1qGUeZ2H6brtD5J9whA35P2mm27KQguEz8EirB/4wAfyw0WhYwhVc/bZZ+dp7EdIrNjxk046KfPOtX0Lp2H7bFkYF7LfF4hB4ooXLa4Z1lUsLMgCg74cffTRbtFFF/UPuSKvUhKEswDKYl6n0BnbPh0PPEQ7EMUMxpjHO+3yW2+9tRIBBon8RS8h3JmtUZewxwP9q1/9an5P3tVpp502GmGPpzFktj8AAKnKgsipxV+EGSwN13CB57AsWr6KZsbYuXArwj5EpHzf/7b02vf0bRXWhTHLT3nuu58J61hmbNEGNalD2JP2lFNOcQwomYAVIZr89VjsnLZCQAgIASEgBAYdARH2DSwUm9wgC7F1DjP55DdqwVaEPSg0k1iEsH/3GPbx9fF7WMtPLPv4nTkfWxH2n/Dh6Pl3LPv4Nx7W8hPrmzZMhP0ee+zh1lprrfz1gYzeZptt3Ouvv54fsx8sxDrnnHParoNsv+222/J9+3HWWWdlMa1tv4jY5xwe5NTLRjhCmmy//faO8CG+hGQR54gXDwEbCiQ8pI4JsyIgWENZeumlR3gis5ht0WwhQuSst956uYqf/OQn7vjjj8/37UcKnSnsY/kdpu3666/vdt111/yRsTP2rhJC2GyyySZ5EpvRUZew50I86P1FmHNl//3Rj4d9qLtsICm8Z4z9EE/Tecstt2RkqO2HBKodxxYvvvii7VZuRdhXwtNx0v/2xyTsQ3v3U378DDPQQz7rSjiLifqRcFUm4fsWhsSxdAwsszaKDTRxPBxssrTaCgEhIASEgBAYdARE2DewUGxykCzE1hmL3PDhaQv55Ddqyb8Ie9+Kvf1ui82HtfzEso8Ie5d5XfvhnkIvtN5Kzn9Sx7KPf+8Y9Zuvj99tKD+xvmnDRNjPPPPMI+K7s8AqYd18CQmbKnKQ+PHEkTchLd7wYczkMNRNGbGPns997nP5opbsFxFGDAAQW9viZJOOhT4Jd1Akoff6D3/4Q3feeed1JOWdwhvTJ3bKiH0ujK0zhX06HnBIdpgNyaxIk6KZHHbOtiykyuCTiYV76YWwn3322d2ZZ55pKkZsmxD2eAYffvjhLlwY9/LLL8887kfcJMEBQobhJR9K6DmP1zJhsnzplUgWYe+jV/3b//b3irPfxgvbNjHLjz0BIZIuvPDC7FtDGem28Gs4gMaC4wwu+1KXsOcaf40F0+EvLm3HtBUCQkAICAEhMOgIjBlhv+CCC45YaGzllVd2eDGZ4PFy/fXX2262ff7550d0Ni3BcsstN6KRy0fbb/heffXV7qmnnrJLsi0LJhV5XuEZtvrqq+dxGe0iFmvzvcaKpohPmjRpRAeW61PoZGru8ssvb9nLthyzBaE4QGeazqYvr776qiOsTZG0wT7kO7bNDYuYIXHaYp822HyYy08K+9j77nfm7BjbXj3s22KftpTJ2PXbMNvH3uuYhH0b7ANZArFoAsEOkWiLqvIMBx54YAdpTfsFcqhIeIdYnNYnuVnY76ijjsq8GDm/1VZbuU033bTj8pDs80/ipUyefCGkCV6SxMcnHj159ON5Q1hB8nC+SIrIRMKeXHvttZnXJ4tk4qHph0VhMVoGH8okhc7Y9inL+3g+Hn6/COlSJ/xFOACDc8d73vMeN3HixByu3/3ud27PPffM98MfIdnpn+edfvDBB/NDIeH4ox/9yNHPmW+++bJ1NSinLEbsly0uDgnWXGGiH9yfWS6hUK6pP0wIKxSuSUFfwx/Qs7TMpFlnnXVsN98yQOI/LzYJy/S9997b4WmdX1zyg4E8k6rBR0tj29A+ZR7clp6t/+71SqL7eur8TkXY+89APvopP/fcc0/2KFNPPXXe5wQXygFrGzz88MMOMt6EQUs86f2+P+cYVGZw2Zde7RPOBiMfDMg+++yzvlr9FgJCQAgIASEw0AiMGWEffnjrogRhT6epSMJGR1GaomMMChR5ySyyyCKZd3bRNd2OhQ11S59CJ9NP8ZDrVaoal22wD88b2+aGYUzCvi32aYPNh7n8pLCPve9l5ahXwr4t9mlLmSyzi9mtbDua37QUWKbQaVjFJOzbYB8I+YMOOsgeP9++9tpr2e8pppgiP8YPPI1pY73wwgsdx/2dMvtAxEw55ZQdBBzXoYvQM1VSVL/RRsGxAG/NUAjXQ9ieMpluuumy2QUQhb7wfIQECo+TpiwMkF2fQmcK+1h+h2EbksaEXGIgp44ccsghGUFvae++++6M6O+FsA/XQDBdbMN+QNE77qcv+g1xyaCAT3IWpYt9jJkrfrkrIuKZ9UId6BPuzzzzjNt3331HZIdBcmbINBHuwSBhXRFhPxIp/1vlDwDFLj8MciA+YR/mhkEUBmVIE35/SMu7zjcmnLUVlp9uAypFM6hirVUTPpP2hYAQEAJCQAikQkCE/RvIjia50RZCK2wY1X0BR3NAhTz5jdC6eSRdmc1Nhwh7Q6L7djRtPszlJ0WZNOuWlSMR9obQf7ZtH+RsS/kpI4Q7rTFyr8o+lnrYCHuem9ACm222mUFQugU/yEGIy25S5VnsXwv5wgAA8earBE93POohcboJi8yy2Gw3WWKJJTLS1CcUy67B2/ncc88tO50fT6EzhX3yDI/zH8y88GeYFnnmlkGw2mqrdZDLkP033nhjTx726Gb2CGFkQumHsKfcnHzyye6uu+4K1Y7Kfjjz46GHHspC9YQ3p8zMMMMM+eGyNSBE2OcQNf6RwsM+dvmxwbIqwr4KgHAGmJ82bAN3I+y5dqeddnIbbrihr8YVhUfrSKAdISAEhIAQEAIDhMCYEfbhKu51MRlNcpAQFEWLj9XJa9hQt2tS6CxqkNj9qrZV5EYb7MOzlRGNVc/NuW6EfZXX1AknnODuvPPObrfIz7fFPm2w+TCXnxT2sZcU77UiT6deCfu22KctZTJ2/TbM9rF3vYxca+J51wb72HOvssoqGXFeRojjBX/MMcc4yPC6suOOO2bkJmFwQqF98dhjj2WhcsKFZsO0to9HL7MBFl988Q6vXTuPd/x11103Ii6/nS/aEvrm0EMP7Vgo108HMUpYw7LwgH5a+51CZwr7WH7H8zYkjFk8GdK9jhR5iF911VVugw02yC/vFhKHhOFiyHZx2A/wCVdLw5aygjcxZZBwHY8//rgjH374GT/9aPw+7LDDOsKUEKqGtQFCobwyS8SE9VAuueQS282300wzTRbTPD/Qww/q2V487AnnY4N0vYTEYYbNPPPMk+esDiEce/2X/OYFP/xB0qr+W8GlHX0lQpjttddeWbLY5Ydvwssvv5zpxkEAspxwN9NOO21RtvJj1O2ErL3ggguyWV75Ce9HE/twefiMYMf6QtT9EiEgBISAEBACg47AmBH2gw6M8icEhIAQEAJCQAgIgfGEwFJLLeWWWWaZLC48xAVx24kXX7SOT53nhvRcY4013EILLeT4TagZdN1www05cVNHj58Gb3sWsySkgYXugcSEiCWcTROBZCefxAmfPHlyFmoHb2ziYzeVFDpj26fps+k6ISAEhEAsBFjkmW/EnHPOmf1B4D/33HOOEEqsK8dAcdO6PVYepUcICAEhIASEwCAiIMJ+EK2iPAkBISAEhIAQEAJCQAgIASEgBISAEBACQkAICAEhIASEwNAhIMJ+6EyuBxYCQkAICAEhIASEgBAQAkJACAgBISAEhIAQEAJCQAgIgUFEQIT9IFpFeRICQkAICAEhIASEgBAQAkJACAgBISAEhIAQEAJCQAgIgaFDQIT90JlcDywEhIAQEAJCQAgIASEgBISAEBACQkAICAEhIASEgBAQAoOIgAj7QbSK8iQEhIAQEAJCQAgIASEgBISAEBACQkAICAEhIASEgBAQAkOHgAj7oTO5HlgICAEhIASEgBAQAkJACAgBISAEhIAQEAJCQAgIASEgBAYRARH2g2gV5UkICAEhIASEgBAQAkJACAgBISAEhIAQEAJCQAgIASEgBIYOARH2Q2dyPbAQEAJCQAgIASEgBISAEBACQkAICAEhIASEgBAQAkJACAwiAiLsB9EqypMQEAJCQAgIASEgBISAEBACQkAICAEhIASEgBAQAkJACAwdAiLsh87kemAhIASEgBAQAkJACAgBISAEhIAQEAJCQAgIASEgBISAEBhEBETYD6JVlCchIASEgBAQAkJACAgBISAEhIAQEAJCQAgIASEgBISAEBg6BETYD53J9cBCQAgIASEgBISAEBACQkAICAEhIASEgBAQAkJACAgBITCICIiwH0SrKE9CQAgIASEgBISAEBACQkAICAEhIASEgBAQAkJACAgBITB0CIiwHzqT64GFgBAQAkJACAgBISAEhIAQEAJCQAgIASEgBISAEBACQmAQERBhP4hWUZ6EgBAQAkJACAgBISAEhIAQEAJCQAgIASEgBISAEBACQmDoEBBhP3Qm1wMLASEgBISAEBACQkAICAEhIASEgBAQAkJACAgBISAEhMAgIiDCfhCtojwJASEgBISAEBACQkAICAEhIASEgBAQAkJACAgBISAEhMDQISDCfuhMrgcWAkJACAgBISAEhIAQEAJCQAgIASEgBISAEBACQkAICIFBRECE/SBaRXkSAkJACAgBISAEhIAQEAJCQAgIASEgBISAEBACQkAICIGhQ0CE/dCZXA8sBISAEBACQkAICAEhIASEgBAQAkJACAgBISAEhIAQEAKDiIAI+0G0ivIkBISAEBACQkAICAEhIASEgBAQAkJACAgBISAEhIAQEAJDh4AI+6EzuR5YCAgBISAEhIAQEAJCQAgIASEgBISAEBACQkAICAEhIAQGEQER9oNoFeVJCAgBISAEhIAQEAJCQAgIASEgBISAEBACQkAICAEhIASGDgER9kNncj2wEBACQkAICAEhIASEgBAQAkJACAgBISAEhIAQEAJCQAgMIgIi7AfRKsqTEBACQkAICAEhIASEgBAYUASmmWYaN3ny5AHNnbJlCEw99dTu1Vdfdf/617/skLYNEXjLW97iJkyY4P7xj3801KDLhhmBNtWZvOdvfetbVccP4AtLnf7KK69Eyxn1GvLPf/4zmk4pcu5tb3ub++tf/yoohEDfCAwMYT/ddNO57bff3s0888z5Q91www3utttuy/d7/TH//PO7D3/4w26qqabKLz3nnHPcb3/723y/7o8NNtjATZw40c0666xuiimmyC6jAfzMM8+473znO+6ee+6pqypPF1snH9Ytt9zSrbHGGlklQT5poJPPBx980H3zm990v/nNb/L71/kxxxxzuG233dYtvfTS2Yf7zW9+c6bz5ZdfdpMmTXLf+ta3ev6YL7XUUlk+sc+UU06ZZeO1115zL774orv66qvdlVdeWSdrHWlS6Oy4QcQdGkFbbLGFW3jhhXOtTzzxhPvGN76R79f9kcI+du+YZTKlfVZddVW31lpruTe96U1Z1ulIHXfccfYYtbdtKT8pbV4brBoJY9dvdsuY5SeFzhT2Gdbyk6JMms1TbGO2OSx/seo39MUukyns05byk6JMxraPvUMxtnPPPXfWnqbd8va3vz1ru/HN/fe//+3+/ve/uz/96U/uuuuuc5dffnmM20lHHwgsu+yy7kMf+pB797vfnfVXrG1EfwCS55FHHnE/+tGP3AMPPNDHXYbjUt57+lX0gSBbDUvee/pWTz31lLv++uvdjTfe6F5//fVGoNBPXWGFFTqu/dSnPtWxr532IRC7zjzyyCPdtNNO2xMQZ5xxhnvyySdrXQMJvPXWW7uVV17ZTT/99I7+PsK7Th/9D3/4g7v11lvdVVdd5eAAJN0RiNUmpH7YbLPN3Oyzz57xO9RD1OfwJvAHN998s7vrrru6Z+iNFPSh1l9/fbfOOuu4WWaZxWF3szV2xrZwRWeeeab7/e9/X0unEv0HgY022situ+66bs4558wx5Qy2+stf/uLuvvvujON69tlnG0FG2+uQQw7p0E2ZVLurEZytumjMCXsqi0984hNumWWWyRtChiAV0Kmnnmq7tbeLL764+9jHPubmmWeeEdd8/vOf74lcn2GGGdwxxxyTVZIjlHkH7r//fnf00UfXarCl0MkzH3zwwR2DE172sp98dBlc4K+ObLzxxtkgijVQi65hNPbYY4919913X9HpjmPo+fSnPz2iYdqR6I2dF154wR100EHZhyg8F+6n0BneI9Y+I9g77LBD9pG00WzTTUOIctCLxLaP3TtmmUxpHxocW221lWNgwRfe880339w/1PV3G8oPD5HK5l0B6iFBivqN28cuPyl0xrbPMJefFGWyh9e4p6Qx2xx245j1W4oymcI+bSg/KcpkCvvYe9TvdqWVVnK77LKLI4915KWXXnKnnXaau/fee+skV5qICODNR2f+Xe96V1etEAgQxZJyBHbbbTe39tprj+ibFl3x2c9+1v3yl78sOlV5jH7ql770pRH3gJyTtBOBVHXm9773vZ4BOeGEE9ydd97Z9Tre81133TV3SKy6AMIe50dJOQKx2oT0e+BNGITtJpC2X//61yuTHXbYYW6JJZboIHzLLqAvfccdd2Tfc3nel6H0n+MLLrhgxlvVaSdB1u+9997VCkvOwjMuuuiiHWd/9rOfZTxlx0HtjDsExoywZ+QZgnKRRRYZ0VAxlHsl7BmB/OhHP+pmm202UzFi2wthz4jjV77yldodlYceesgdfvjhI+7pH0ih8x3veIc76aSTalXA5OWCCy5wV1xxhZ+tEb8ZIaxLIFOpH3DAAV1H8Q888EC3/PLLj7hX0QGmEDHo0u0jkUJnUX76OUYnaqeddnKrrbZaqY16JexT2CdFmYxtH8iSTTfd1G2yySaZV0CRXXol7NtSflLYvAi/fo6lqN9SlJ8UOlPYZ1jLT4oy2c97XXZt7DZHivotRZlMYZ82lB/eg9hlMoV9yt7XJsfpWK655po9Xco3GAeSX/ziFz1dp8TNEWAmMR6RdQgD7tJrO6l5ztp55aGHHpo5ktXN/VFHHVXLcSnUd/bZZ2deruFxEfYhIu3ZT1VnpiLsN9xww6yPWhdhZpOcfvrpdZMPVbrYbcKzzjqrktMKwYVgP/HEE8PD+f53v/vdUs4tTxT8ePzxx7NBg+Cwdv+LALMomNVPW66OMGuBweBehYFAuLZQRNiHiIzP/TEh7Jnqx5SrbtILYV/W6Anv0Qthv88++7jVV1+9QwXThCgchJvhGWaaaaaO80w/I5RPmaTQGT47DfFHH300m+7KtJwVV1yxw/Oe8xDITM8pEqZHXXjhhR2VOsQ5YX+YerXYYos5poNDLpigi8GSMimqaPDEYuT/b3/7WzbdlBFKX5g69IUvfME/1PE7hc6OG0TYYYr7zjvv3IFVkdpeCPsU9klRJmPbB0+k448/PvO0LsLQjvXaEW1D+Ulhc8Mr5jZ2/Zai/KTQmcI+w1p+eB9jl8mY77jpCvNox8Nt3TZHqvotdpnk+cJnV5ujeTsmhX3Cd7Cf/ZB8IuTcc889555++uksJCRhIpkhy1R9XwiTQztTsb59VNL9ZqZr6FkP9oTtJAQO7ex3vvOdbqGFFnKEneq1nZQu54OnmZCVzN70hRkJv/vd79xjjz2WhVWda665slnc9FvoCzUh7IvuY/cUYW9ItG+bqs70CXvKL/3GbsLsjaqZH/POO282w8PXg25mukPU/upXv8p4DuoOPHvhPkTY+2j973fYLvrfmc5fdduEzLJk1oMv1OeEM6Meoi6nPwNh7Auhiv13xT8XEvZ//OMfHR7f2JnvBfUZ3vwh+UxkhosvvthXpd9vIEDdT7hpP/Q2wMBvYauHH344Cx+Ikwvlh5A2TQh77MHsCcJQhiLCPkRkfO6PCWFfVKlBCNOg9L1DeiHsw0oIc0EiQ6T44UfqVpRc/+1vf7vj2qKRy1NOOcXhmWxCfPy99trLdkdsY+vk3uTBF/ZvueWW/NCMM87oGEjwK5Rrrrkmmz2QJ/J+bLPNNlmsNDtEQ3XPPffsiGWGpzxTQH3Snqm4dAyK5Itf/GLHR4WPBB8iGgYmeNTz8THhvjSay+JCptBp9461/eQnP5mtKeDr45mJe+l/ZHsh7FPYJ0WZjG0f3jm8G0NhEM0vg+BbNyROW8pPCpuHOMbYj12/pSg/KXSmsM+wlp8UZTLGux3qiN3mSFG/kefYZTKFfdpQfsAydplMYR90xhQjn2hP02knHEKRFHlpVrUzi3ToWDMEmFWMJ6YvOO3QJvfb2HYe8uADH/iA+/KXv2yHtPUQYD0p+o4mxHTed999s3Ua7JhtiWtPPwUSjYGsukJflxncITFm14uwNyTat01VZ/okLH1tyne/8rnPfc4RvsWEfjdhgIvC3NLfZy2/P//5z+7222+3S7T9LwIx24TEmace8nmbIg6KW3/84x936623Xm4HiHfaVEVCHhHCONPvL4pRT5hZBnrgjkx4LxRCzdD43/aDH/xgFur4f0ecA+OLLrrIP5T/fs973pMNtFxyySX5sTo/9ttvP8d6VkUiwr4IlfF3bMwJeyqWH/zgB1mnksVOCHdh0pSwhwxmJIqFGMIOVl3CnvAlNNBM0Ekcz1BWWWUVt//++3cchnhmAa5QUugkthke9CZlFXo4jZvBkY985CN2Wcf23HPP7Rg4oeIu+jh/7Wtf64gfzsK2RxxxRIcudkLvUyp+wu2AqS+MPKLTHwQgTl5RBzGFTj8vsX775CAdJ2YU0EjnWf31GXoh7GPbh2f1CfsYZTKFfUJCC+8P8s3WJ6V6IezbUH6wTwqbozempKjfUpSfFDpj22eYy0+KMhnzPTddfucsRpsjRf2WokymsE8byk+KMpnCPvZ+xtriWIA3cVEbMLwHiyISH9eExQ7HevHMJZdcMnMuIU88A2Fj+hXWIjKCBGcY2t1jKWH7nsUHmaIv6R2B973vfR1OV9TtOCzRLo4pxBZfYIEFMpUQ/RD4vvekCPuYaI+urlR1ZmzCHmL2vPPOy/vcLDhKyA08gyW9IxCzTchsKWZNmcCbbLvttqVhguG8/AWJy7guFkXFobMswoLdj0FdnD99PoaBqKaLpZre8bal/LBAswntCxYhjynhu/CTn/ykg/cTYR8T7cHVNSaEPS80Hwo+Pt///vdzDxAqo34Ie0hPOn6EUjFpStiH1zFaZiOTppsRUCpJOnK+/PjHPy70XEmh0ycqyQNxscIR07JFjVh85Oc//7mfdRdOjysbqSWG+HbbbddxLR+UIo940pHehOl5eOeHwgeGNQ18oSG7xx57+Iey3yl0jrhJhAO77767owPA4BHv5uTJkzOtfAybEPYp7EOGYpfJFPYhDBPvLJ5jeJP5DQe/HPRC2PvXgcMglp9UNud5Y0qK+i12+eF5Y+tMYZ9hLT/YJ3aZRGcKoT0Qs82Ron5LUSZj26ct5SdFmUxhnxTvel2dxO/9zGc+kyd/5ZVXRrQT85Oj9MMPLUYYHzzV+hXf263OQn/93q/qekhePDGNWKEdjvMTW0nvCPjOK1zNumSsTxZT1lhjDYfjAEJ7lfeJ8J8i7MtRfv/735+tgUb4CWayjxfppc6MTdj7zivgWcZdjBesUz9HzDZhOGOtGym75ZZbdnjAT5o0KXNY7eeZw7qwzvqH/dyvbdeGTjZlfFW/z+U7tLAuEIS973Db7d3o9/66fjAQGBPCngX/WFQ0lH4IezyWmbYYStghKht1DK/zR0o5V+Q1T+gbyNhQiF1F7M5QYutkao0/Ja6sc8S0V+KMhvLTn/60YwSX8+EzFU27Y7AFz/eiqZyQ0MyM8CW8P4McdHJ8CRst/jmmYYWdjxQ6/XvG+m3hmMLFc5sS9insw7PGLpOp7FNWzn0SqS5h35byk8rmsd5x0xO7fkNv7PKTQmcK+wxr+UlRJu39jL0tq4uatjnIX5nOJvUb+mKXyRT2aUv5SVEmY9sHm4+lEMfe92Cn3TbW0+jHO2EPvpA1Jt3WfrJ02o5EIHx/y/pyI6+sf4QQFxBf1raxWdEQ0SLsy3HE85uyjOCUxsx8Zl+XhUwt1zRYZ8J3rqrOjE3YE+vcQq7Qb2IduiIeZbAQG9zclLXfmrQJcVRca6218oftNjCMwweDiyZlUSHsfJ2tPwuI9FdeeaU7//zz61w6FGnCdWNOO+00d9NNN0V9dt9RhDIKF7nmmmuKsI+KcjuUjQlhXwZNP4R9mc4mFSXkJQ0qk6LwMXiFsRK3ebVYWraQs+GCRSl0hrGzikLSFHnCW16LpiuH8eyY7vPDH/7QLsm2xLdbeOGFO47ZzqWXXpotwGH7bMN4kDvuuGNHowDiH7zDmQqmo2gaVgqddr/R2DYl7FPYp+p5m5bJ0bZPE0KrLeVntG1e9T6UnUtRv5Xdi+NNy08KnSnsM6zlJ0WZrLJ5inNN2hzd8tGkfktRJlPYpy3lJ3aZTGGfbu9R6vPhInnPP/98NqMp9X1xIkGKpvnXJexZm4H1cEz4xrDIaBEhWMfDHkKWGMDhjFfTH2tLyKGVV145Vxe2lyGBIQFDp5H8Av3IESBGsD8DgwE1PxYxfRXsyoLKTcUPX4RNtt9++8w2IuyrEfUJe0vJe33vvfdmfc62hnHppc4sIux5JyHdbfa2YVNn6+t74oknsnA4/nV8o4qcK/00+t0dgSZtwrBdRChd1oQpE76BhBQ2KeKh7FzdLbwM74AJIY/hmST/QQDHVYvzX4R3v+WHtWlwgDCe8Yorrsi4so033liE/RC+hCLsC4wexouiEW/TFy25721F480acpwv8vBNoXPnnXfOFoCxPEGsQ7CbhJ7wTCMkFqkJq8CzWIkv4SK6xKslRrhJ6Akf6iQ2WrgILguVgQ9S5D1gC/RwHuyI/z/TTDOxmwlTRf0wRxxMofM/dxud/00JxxT2qXripoT9aNunCaHVlvIz2javeh/KzqWo38ruxfGm5SeFzhT2Gdbyk6JMVtk8xbkmnbNu+WhSv6Uokyns05byE7tMprBPt/co9XmfjORevaxD1U/e8Gybc845HR1aZnD60o2wJwwjZCBxaGnnE2oPAgw9xHSmwxzG7+9G2G+wwQbZQnRcDyFLuzaV+F5+1vdYeumls1m+fCets094yxdffNExszbEKFXeTC/Ej/UB7FiTLaEQQ1s00VN2zRZbbNHhbAVpRpgD1txabLHF3BRTTJFdil1ZeBOSk1nFzG6uIyzuiU4Tf42usSTsY9uH948yFUPw+oYMwwbrrrtuqUo8iln4lzqAfmZbpJc60yfY7RmtXLGPdzyDpCxoyUBGlcwyyyzZGmCW5oYbbsjWV+Mbv/rqq+ezPahTGAhl8BLSmLBikt4QaNImJLQcfIsJsyF8+9tx2xL6+KSTTrLdbEt9VjTg3JGoZIeBSdqdJrwH6Ev5LeNe8D3vfOc77baNt8xc8mf7NVZUcaE/Q4WBeULqspj7hz70oaw9wbcXvBhMI3wmsyTgyOqK3zZm4Iy1cxAR9nURHF/pRNgX2JOP1T777JOfIWbUQQcdlO+zGJC/AjeLOzF9yR+JhOj0vTBS6OxWofue8HzMafB89atfzZ+jKISOHyuLhH4oIBoGNPRt2iYV0GWXXeZ23XXXXCexHv1pWZzwPzJhTPxwpgLTiRixpMFnUuTln0Kn3W80tk0JxxT2qXrepoT9aNunCaHVlvIz2javeh/KzqWo38ruxfGm5SeFzhT2Gdbyk6JMVtk8xbkmnbNu+WhSv6Uokyns05byE7tMprBPt/co5flpppnGnf/GdHkjkLgXbVDiq6aU0Cuaju3JJ5+cE1ZlhD35xTvdb2tajPv999/frbLKKnm2OQ4xbt7yZYQ97VnWZ8IzzsS84mw/9tZ3HqJ9/aUvfSnLgxH1RfeD3Dz00EMzMrrofOxjftnpR7dPcPejp+xa33mINDgsEUbVwtcUXQeZDOYs9Fsl2AMPWMJmIEbw2DVjSdjHtk9YJu0Zm2yZrQ7GyKKLLpqFf2LwxK9nfL30demHgqfvbOanGZTfvdaZvdjp/vvvd8cff3wHD+E/97LLLusOPvjg/BBtDNZW8J368pP//QH5yLqDzDaT1EegSZuQdUg233zz/CYMqLDAeZkQJoX6yxefv/GP1/kdhuQpcvCso6fXNGF7sNfrLX1RxAk7F2vrhzRkbUYGcJkxUyXki2+K1WllacOZN35bSoR9GWrj+7gI+wL7hoT8PffckxUwkoZe6yzaykKYEOG+VzgdAULOmKTQyUjku9/9brtFNppoq1P7nRQS4EFBx8GvYGjYhPFF/RFDruODYSOq/gI1HGNQg487nXgTpiXuu+++tpth4g8S4AGw4xshcUz8RU0YQGAhDe6z2mqrWZIRcdPAObbO/Gaj9KMp4RjbPt0etwlhPxb2aUJotaH8YJ/Rtnm3d6LofIr6reg+dqxp+bHri7ZNdca2zzCXnxRlssjWKY816Zx1y0+T+i1FmUxhnzaUnxRlMoV9ur1HKc+HU/hjxNCtk9/lllsuC2NijiR2DY42EFbmQc9xI+TBnrjvPulHmxbvbbwUIQlp+/qkN+dpX9Nmpe0LKYngNUfYFNqtfmgaztHGpu0dhpXkXCzxQzVBAkyYMKHjucruQ97wph2NmNW9EI1l+eV4asI+fIeJYc/MizqC41YVaY9jk0/mhH1EEfbFKPuEvaXgHWcWy8SJE90cc8xhh0dsmQVBGBEcy7oRZCMuHoUD4fvWrc7stRzhNEh/u+jZw/B2YDXDDDPUemoc65jVJKmHQJM2Ycjh4CCJ02WZHH300dmAln+eb5If5s0/V/Ubb30GIf3vH/Hs77zzzqrLopxrC2GPgy7fdhNmoVhoPjtWtu1mS8JD4/xgM7oYDMARwESEvSExXFsR9gX2Dqfe+dN6/Q4r0yKZrsd0F3/qCiqp7Pypmyl0MtrqN1ZsQd3QE56pbHvuuWf2pP60bg7QcfHFJ/TpoNgI7/zzz++osK0Cv/baa7OOy4ILLph1ikwH4WwY1TUJp4D6FVXYYT3qqKPcfffdl03lZYV0k3C18xQ67V6jtW1KDsa2T7fnbULYj4V9mhBabSg/2Ge0bd7tnSg6n6J+K7qPHWtafuz6om1TnbHtM8zlJ0WZLLJ1ymNNOmfd8tOkfktRJlPYpw3lJ0WZTGGfbu9RqvNMA/cdMWg74r0JaT4aQruUWa+QUNbJ5b7k47HHHsvXXIKcpt1ucWctb3SIIeoJJ2FCh5x28/LLL5+3ezkHCUbn3LzoIURYONL3wua+t956q8P7Ha/3lOKXH/8+EHAQlTgVES4ID0yexRffGck/Hvs3oQL8GchN9bNGVkqv6dNPPz3DKswf7wwDM+CFnd/73vdmZLH1h0jPO0F/sEhwbCJ0jqWH2Ifg92UsCfvY9pl55pmz+gBivV9hrbiqsB4MpuJ4hpNX2TpolEfKAQNrjz76aL9ZinJ9kzrTCHu8nanX6Nvz3hFCZL755nMLLbTQiLwRAovZQaEQDne99dYLD2d1JmE7brvttmwwb4kllsh4Ah9b8OR6QmxJuiPQpE0YxqTnLocccoh75JFHRtww7LtYAiJD9PoNpn5jYNSvr6lzmW00GgIZ7TuiNr0nM/uYlZBKmO3DIEmRgDkDhU899VT2LLRLwpkrhOsxB9tQB2sFLLnkktlhyhqDvQzmmYiwNySGayvCvsDeeM8wXdnkuuuuc8RODEc8/UVAwgo5LIwpdPre6eSVUDRMBQw94el0EIcR8Tv+/8/eubtaUmxhfEcqTigKGg3i+z0oiBP5GHwnCmIkyIAGMhMJiuL4wEDwHxATuYORmOkgosggPlARUZlIDETQRA1NjO782rv2/fY6Vf2oXav37rN7wTndu7t6dXWtXtVVX60Hv9WCnt86+KejMMBe74XLMZMzzpOoi8UKI29B72PeUw9crbynAu57FttRs2LD108qInha/cfa+g+sLmS01aG2fNruxbkSwH4T8tH3Wt/btufTd5py26g/1GtsmXPPoRTRv7XVoVR/InjWls8u60+ETrbJPOKcHwvYQvo69yrp3yJ0MkI+U9CfCJ2MkM8671jptUxcMbYwMBI+77zzTpNnqJRn6XWADSyEAE5rfXL8ALwYvwLY5whgHlldeeWVuSIrx3/88ceGJ4D5GKT6Y/f7+eefF8TG9kAnMcBpHyWfpFbP7dq+95Tm+f/+++9G/gqYcBwrVPp69dIgZCjAvidd6AT8x5PYL+RsErD39Z3qb8Bl4mzTJ6lc9HnMy0aPjb1f2mcyHwOP0IVFrTshuQB1WcRQSgG9GtbLyjJ3oi9nPq6E9xKLWbrQCXAM30jCO8rn2Su9HwvIJYl5S++n15WOCRW4hR99B15jGmbupptuavp6Xai2e/PMQxeoNCcKfIh8gBGmhng2/ru89XigtQWLaniNevK5KlIhqbnGh6oiLwdeB0ozYK+tsTv7M2CfkDWDKRTCCGsIOlyN3+4T0eqAjOsAn/WjF8ETK34+0EbE7aReagnvE9Hq4D4FbDLR0o4fK3hAe+KpGRECCGsFiAHSK6+8Yqf2xGWkftTTiEkMbrj6UcBdjwUA+yBg7XHkyBG7pFklpX2NInga77G2pYBjbfl0PW8JYL8J+ZQAWlPQH+Qztsy73onU+Yj+LXUfO1aqP3Z9alvKs7Z8dll/InQyJevIY6WTs7Y6lfRvEToZIZ8p6E+ETkbIp+0dijiH1RiW6TpmHCN2bNezYBCC4QpgRooIdYL1e1sIE38d3qQA995SzsoRAtPG4HZsjK2O6bkf43osvXOhbjTmPeWxwp9jUtMSiyasKN4SSvR56i2t544fP764/fbbl4d4Bwh1o+TBFeLYnzp1Sos0+zNgv6dJig8A1hMuhz/zhDFmLMDQ926KovtMLKMB+LRPJgGttwZ+6qmnFnfddddKM3hvdj3pgUTm7YQriiRi6tOP16B14rmve//SMSEhirB294vPLPbxDeM750PBaV3BVXLfAS1n+z53C98SkkdreGcru+tbLOBZUFHyESb0HHLiO6uy9CGL8EgCZzRvFvoqEs0iByX/TWEBhxj3M+3vFpgB+4R8iY2nYV1YScYFzazuUR6sVDhm5ONuATpbgirKRPD0q68oOgMUsr9DdOhHjx5t9u2fudTxm05fk+dyDB4HDhxgtyE6FAasZq3w7bffNlm87TxuiBqz3sfaOvfcc1dWG1lVxPuAD4MRK/enT5+2n43r1a233rr8zYSeUD5GETyN91jbUnCwtny6nrcEsN+EfEoArSnoD/IZW+Zd70TqfET/lrqPHSvVH7s+tS3lWVs+u6w/ETqZknXksdLJWVudSvq3CJ2MkM8U9CdCJyPk0/YO1T6HtSWGFLSN0RlZ5ZsAABKLSURBVG+//dYALH6CaefH3GIBB8CuoWrs/sRgBrhOxXa2MqktABUWvJ54Xt5j8kSNTT7MJRb+akTj6+NDcfgxvS+/S799aFO8iQFMckQC2f+cjTVs5Odc3pO4LXHjDNhbK66/BRwD1MLwy1ubbxKwH6vP9IAeFvkA9EpgAxp6lnNdAK/my6A8faH34uF4Ldp1wJ52ZJyAkaMCvan2xQOI/ofwxRDfJIuQkCrvj/n3geux5h+yqO157uffPhw0z9qVY8XnrCAPBGMRI78AnMuL4vV7BuytBff3dgbsE/L1K8l0gpp4iDiKDK6U/IfMh5qJ4IkrK66/RgwGDaznGEkq1NWXVTu1pPGDS67x1jfKE4CfwatOch588MGVuI2pwb9aAJHoCrcum+SlLFKYbGC5b+Q7NY5H8LT7jbEtBQcj5NP2vCWAPfzGlk8JoDUV/Rlb5m3vQ+5cRP+WuxfHS/UngmeEfHZVfyJ0sk3mEee2BbCP0MkI+UxFf2rrZIR8It7nFE/GkshN49xiXYahio4PU9dGHyN0De+p5ndK3dPikhPXumuBgVAyjH3N8i3Fj2NYMxIq88svv8wVqX7cJ23uspj3+Ri8t3D1Ck6IoXr+Um1iEKtxUepRfL9APHUjDJ4AHY2Yf8EzRc8+++zK4pJaRHMN+jVTewuQCBow69JLL80CnMSXJrb32DRmnwkOQPg6o5RxHmC7WsjTH5KIu418JAHimkfmlCB0EN+UdYlQOCdOnNjYt2ndMSFeP+AiF154YbIpAOvpp4iuYBhQSubJi88efOihhxaEIlbi+/7xxx/roXlfWsDrGKe8xbwUb3Z93qK2CBgsFuOxl6LDhw8v7rzzzuWp33//ffHWW281v4lUkcpzsCw870y2BWbAPiE6BvoagkWL0DE+8cQTeqjZV7duQGkdtFEggidhanIrqEwYSNajxMorHw4jlJwVPSU6fAY7KUq5hjKJIaGGEYk2mLAoKZiqx2kn4tP5gah3u0/FYYvgqXWL3i8FHCPk0/aspYD92PLR+/W1LJiK/owt87b3IXcuon/L3YvjpfoTwTNCPvo+a53X6TOVj9/X+21SfyJ00j9r9O91J2ep+pXIJ0InI+QzFf1RGaiMSnUyQj5ar6h9LNbxklTLVSaX5CZiuykC1MDb8/LLL1+pAkCUhYdAVridq7UiXp8nT55MghOHDh1qnktjN8OcPtJ4sEDhrfixaCXJ6ND4wSsV7/nDx11n7tKWbI8wCxoTty1Zas8qdBajfc1Ip7NwSwHeOxJiRhHvD17DRn0sF/2CiRprAcKT/2Jd6lqEWZd/bfkAtJITqgY99thjrUAredT4Lt1888179NDuTx+AMRmGdsx7x6ZN9Jm6kMTzEt5Wyedl6dMPEHZDc3l09TV6v13erzUmxGPnhhtuWFxzzTVNPgFyAmIBbwCtGo5a+OGudk/lNWGs8+6773ZdGnKedyyHQQ25IeGdNL/ikGv7lvU6pn1/iodfGPHfF42Akbq+z7E+C299+Mxltq8FZsA+IRMG9KnOikF6Kp6XT7zKChdAp1IET+LPeTc37sn9idHH5ETJg69MJgDDlfiN5ZcnH+rGzvsPER8MBpdKuIziOuoJyyY6PE9+Ykw8TgYTShE8lT+TMcLyWCggPYfL8ZC4cHqt7ZcCjhHysTqltv6d+fTTT5uJaKqsHouWj96LfX1n+gKOU9GfMWSO1R0TeU8k6MICr4si+re2e5bqTwTPCPnsqv5E6KSXOd9rYpJ7YoJjuVn8uSG//TdxU0lnI3QyQj5T0Z/aOhkhnyHvaUlZ6gwQffHFFy8vx5IPsN4bXiwLBO8wtjx27FgD2BmIzi0B0okXjicp43aI7xlu5nifkjRUifoDQBHvGeMWwunQVyhRBv0m9CTWvBBJRs+cOdNY16nHAecYN2MlB7ASRR5EIzRPKvGp3Z/nJu+A0R9//LEnEa2dq7WtAURQl66QA+vW1wMqfRJrqrGWH3tOBbCvLR90g6SmNQgrcO+1g7X6ww8/3FiZpsatdl+SSqMLJGpFNpugTfSZLBAwJzLy7yXH/cJdCrew623rjelqjG2M937eRowJfXv5EC19kiujpyxS6nfTW337+0T/9uGlS+83Ri4dv1ibwqq0/j5vkcdTavTDM2CvLb6/9mfAPiNPXam0IsSaIjyLJ+K+ERfSKBXmhXO1eaZccrhPLu4Vg3SdpKSsNnxsLPgB/BPT34PmnPPxMxmk8aFQwrUTiwul3CTBewEwUFO3PeMRwdN4s8VKC/fYFGER+NVXX6VO9T5WCjhGyKet0qWAfbR8fJ1LAPup6M8YMvd6bO2b8tSxc35bu3/z/PV3qf4oD79fyjNCPruqPxE66eUM4IisPeW853y5rt8Rk7OS/o161tbJCPlMRX8idLK2fLrezXXP+3eb8RnAdiQg3VVn8jB561GzrqN+xLJXwN6ARHJSEW5BLb8xxGA875+TMTDArE2o4aGAPSA5oAcep4SJVADku+++WwBsRRHxjVlAMCIfFHmhcuTBVBYpX3zxxVzxKset3dZlFg3Y+3E/eci6QnLos+GtoaElZsB+XYkvmvmfAfaEF8Kj++DBgys6pnehLPMzwDTNI6dlxtz3fckYfSbzbb5XRtav2W/b6rg/BepbOdt6MJX+bpNeVVavbd/6dyBiocOHEqZfQgdyREL2F154YUWP8F6KtkrP1ceO+3fMjg/djgHY+5wnr7766uL777/PVpVxCOMRI4xA3n//ffu5HF8sDxTs0L+kMLMCVvMlW9YCM2CfEQgWQxojCiVgYpBKsMLgWC2OAMY///zzPZwjeL7xxhuLiy66aHmv3GIBq/xM+s1inI8zroYMMJVYmcfyXSccWMFzzJMfFORcsG688cY9E4JcrC9C5Nx9993LW3399ddN4pPlgf/tRPDUe/iBu57bJGAfIR99Nr9fCthHy8fXsxTQmoL+jCFzHbhr2w4B7CP6N62L7peC68rD75fyjJDPruoPMqmtk17OuwTYR+hkbflMRX8idDJCPv59r/XbJ0wDxAaQZMy5SWJsy8IHwDuhaDBYUaORHGBPnRkPE1f2jjvuaMa8TMABLfDAwZoU+uGHHxoAnzjIRinA3s4RPod2YQzJOJsQmpHeB95iviu0hQeRU2Es7VlqbbEsTHnZDuV/6tSpFdkOvb5PeW8x3yY/coiRL8EoFWbUznVtN5l0trZ8sN4GNLL5Ztezt53ne8O8m4VBFtlyhCco+eWwWt0W2lSf6XMxpLzpaSPC5rL4YdQW4oZwLMTJNmyA/t+H/jU+83a1BaIBe/pWvMlUNoSJQkYpIqwRiwZWnjKp/IOpa6OPEaLniiuuWPs2AOdffPHF2nzaGLA4i1eWkQ9xY8dt6xcjWDCxcEZWps/WG7l03bcPz7nM9rfADNhnZHTBBRfsicXOCibhUJTuueeexZNPPrk81La6FcETawNWuY24P9bwftXbu53ngH34+EFGKikVkySsXTQZb9uKrrckS7ldAZgxYdKPSA7Yp54RPOELbStgT90i5APfFJUC9vCKlI+vaylgPxX9iZZ5DcA+on/zcrbfpeC6XZ/arsMzQj67qj8ROqny3iXAPkInI+QzFf2prZMR8tF3vda+B3kBohlTksBxG+iWW25Z0JaAz57aAHsrS/x7xvJYyhsxEWcynYpD3wbY2/XE1MYjJVUnK1Nr68HeXMLA888/v3lGHWMD2o2ZJLfWM0fx8Z40AD9YTqbI5w8YYuDg+XkZeq8RX37XfnvrVJ6fcFyAchiU4SG3TVS7z6Q/+uSTT5Ke7vrcHpPgHPOjVJhfD/xhiU9YD/p3Tz6/A4uQYA0zdbfAOoA9fXVKHnZXDDZZXNaE6J999lk2YSkLvNRHF9PG8LKy+u6nLW3PgqIRcsLo9K+//rJDy63PGUFZFlXA7IaS19sZsB/agtMsvzHAnnhbPrHEbbfdtsCKyYj4j3yglLCg8aC5nWeArImwOM4KsB778MMPF7/88otd0mwZlKfiNJPgiIG8EYr18ssvLwfw3O+5555bAZhxxaUzzFFtnnS6WIToABwrDwaYuANyHksH4v0p0cHnVh+vv/765jm1PB8AJgHEuWM1l+fW5DN0Pqw2cj5FxNon/q0SyWk/+uij5mN0ySWXLF577bWFxgDtGhBE8LT61QTssbhiQqnEsUcffXR5iAUWwAClf/75J2ktEiEf7ltbJyPkw/uMlQ1WmUpYQdkAhHfxzTff1NPNPrrpF7Kmoj9RMrdGqgHYw6t2/wbP2voTwTNCPruqPxE6icyNagL2tccctfs3nrm2TkbIZyr6E6GTteVj73mtLaDMfffdt8IOK/Sffvpp5VjuB/GjSyalOX5Dj/cB7Ify7APYD+W5TnnG+I888siSBWOgt99+eyWWPfH4iXd/4MCBZblaYcCWDPfBjnpX2ONgfYrVMu0K4c2BhSohPI04d/To0U5A1cr77QzY+xZZ/W2APe3866+/NuEjcnPY1SvH/1W7z2ShDX3m2cEviMsPyGqLFMz/D561lMdb6LLLLlt5YHJ48F6miOt47zQs2J9//tmEENMQuN7zHV41PM1TdZr6sdpjQrwezjvvvMV7773X4GE2hwUzATMD47Kk6rRdWz8EdsMio86fiXlOaJY+hN7VyPPU515TKfP666832InVl7EOxr1qOQ9mcfz48SVGQVn6LvPis2v7bmfAvm9L7a9yGwPsiQVPhzOUAOyZNKUoBzqlyuoxFgWYNHmi433++ef94QUdHKSdJL9xP6JufPByFMETC39W1T1hfXDOOeesgPmUoX58gNsoJR8+BIDI+nE3HoQA0kRWdty2uNMB0OuHgnO0Ge6O/jjncqGFOAdF8PyXc10L+5x87F65Le1N1vEU1ZYP90jxTN3bH8vpZIR8rrrqquJ4sCy2EdfOU04+26Q/1Dkln3V0Utsh13cOtRgbs3/T+qf22/QnJ/MUHz3WxrO2fHZZf3LyWUcnTY41Afuc3ti9ctvcmCOifxtTJ9eRzxT0J0InI+STe+9Kjuf0pS8vxpptY+K+fErL7QJgD/DG+FqNk2gvwANCVQL4KVBvbVnqkm/X79ft008/vTh8+PDK4/Htpy3xLqYfUCMpCn7wwQcLQh6U0gzYt7cceeIIPYu1uILJ7Vdt5mztPtMAe/80vJPgEan5M2U5z0JHW9iyVCJ5rgMY5nuOwQyL9Eopr3s9v8v7tceEPowKsgEz8TKxNicmeg6AbzNEtOvbthjRkrB9pv+3AAvheKl5PBDjVfopolB4zAydJQwZ+lVCM2Bf0mrTv2YG7M/KMDd5RryphFYpsdOJYoGBJUYXRfD0MetydaCDYFGBgWcbYemORb26WeXK98lGzrXXXXddY7nvB7opvn0HvxE8qU/bh22oZUEOfEo9tx7jncoB9hHySQEmWp/cfg6wp3xt+UQAWtRzCvoTIXOeHcoNMocC9vCq3b9F6E8Ezwj57Kr+8B7V1kl4QrnJdIm1aU5v/r1T/n9uzBHVv9XWSZ6stnymoD88d22dhGeEfOBbg3L60pf3pgF79d7oO1btejYSkR45cqQphrWrhtLpujbqPAAOY1MsxLuIsSUWm9tQ7666buo8Xpv33ntvr9sTNonFD9q1lGbAvrTltu+62n1mDrBve3IW6zBExBuqi1icwmuoz9wc7AAP+21I6Nv1XJs4X3tM6AH7tmfKjSvtmjZcw8q0bWfAPt06ROIAtO+DlwHWU/abb75JM+txdAbsezTSPiyyMcDeZ1fu27Zt4GDtjtLqxMcMkDunjFgP4Wqqia7s2tw2gufjjz++uP/++5MrrwwkcWEmVI5PNJurI6uCeBhce+21yQ851vG4O2PZ05fwqjhx4sRKoly9lgUFwpkMSRwUwRNX11xoo6GAPe6IDzzwgD5mr/02wB4GteUToZPUs6Z8CNuDC1oJ5SzsjdcU9Ke2zO3ZNdGaHWNbAthzXc3+LUJ/Injy3BHy2VX9oT1r6yQ8cUNNgVrbANhH9m81dZJ2hGrLZ9v159+nrvtNM54R8jHe62zXBZ+Iibxpi1j6UCzgsBq1MBLrtAlW1ljWQYz/NSHtOnxrXIsF5KFDh/ZY/BlvADfitLdZ3VrZXd8CjBC6kn4pRYAvGDadPn06dXrQsZMnT66EBJ1j2A9qvq0qXLvPxIKeMBsHz4a9yb2L1gDMGwn/SR2GhCK7+uqrF88880zjPWK8dAtf5vu87zPlW6A2DnXs2LEmDKy34NYa8E3D4C4XLtrKrgvYnzlzZvHSSy8Zu3krLUC4IcKkMdbILXyx4MG318IayeWDdknMS/grozmGvbXE/t7+FwAA///LKLxSAABAAElEQVTtnQnctdtY/29kOkhlzHg6ZOqYSTIPISQpzUpxNEhRGpA0kEpKRZMGpVKpjCGOKRJNIg5xSIaUMkSUQ/x99+l6/td7veue9rP3fvbez/f6fN733s/e97Du71r3Gn7rWtd9nitf+cqf7LRJBK5znet017ve9bqLXexi3Sc/+cnu/e9/f/eyl72se+c73znp+NZOqz7nec973u6Wt7xld9WrXrXj8/nPf/5F+l70ohd1H/rQh1pJGP3uohe9aHe7292uu/zlL999/OMfX+z/lre8pXvxi1/cfeITnxg9vrXD5S53uUU6L3OZy3Qf+chHunPOOad77Wtf27361a9u7T7pu3Wcc9KFj3indeTPOm5pF/JnV56fXcnzVddv6yiX6zjnOvLnuD4/63gm15Hnu3LOVT+T68ifXXl+1vFMrjp/dqVcms7VErj0pS/d3fjGN+4ue9nLLsYCb3jDG7rXve513Qc+8IHVXugYnO2UU07pbnSjG3XXvOY1u4997GPdu971rgVLtpoENkngCle4Qnfta1+7u9SlLtVd8pKX7C54wQt2H/zgB7uzzz674xl/+9vffqjknO985+tog25wgxsszvO+972vO+uss7o3v/nNS4/3D5UgD14QOP3007urX/3qi/qc/hH1+Hve857upS99aUceadtD4CpXucqivbj4xS++0Lde//rXL56hj370o9uTSFOycwTOo2C/c3lmgiUgAQlIQAISkIAEJCABCUhAAhKQgAQkIAEJSGAPCSjY72GmeksSkIAEJCABCUhAAhKQgAQkIAEJSEACEpCABCSwewQU7Hcvz0yxBCQgAQlIQAISkIAEJCABCUhAAhKQgAQkIAEJ7CEBBfs9zFRvSQISkIAEJCABCUhAAhKQgAQkIAEJSEACEpCABHaPgIL97uWZKZaABCQgAQlIQAISkIAEJCABCUhAAhKQgAQkIIE9JKBgv4eZ6i1JQAISkIAEJCABCUhAAhKQgAQkIAEJSEACEpDA7hFQsN+9PDPFEpCABCQgAQlIQAISkIAEJCABCUhAAhKQgAQksIcEFOz3MFO9JQlIQAISkIAEJCABCUhAAhKQgAQkIAEJSEACEtg9Agr2u5dnplgCEpCABCQgAQlIQAISkIAEJCABCUhAAhKQgAT2kICC/R5mqrckAQlIQAISkIAEJCABCUhAAhKQgAQkIAEJSEACu0dAwX738swUS0ACEpCABCQgAQlIQAISkIAEJCABCUhAAhKQwB4SULDfw0z1liQgAQlIQAISkIAEJCABCUhAAhKQgAQkIAEJSGD3CCjY716emWIJSEACEpCABCQgAQlIQAISkIAEJCABCUhAAhLYQwIK9nuYqd6SBCQgAQlIQAISkIAEJCABCUhAAhKQgAQkIAEJ7B4BBfvdyzNTLAEJSEACEpCABCQgAQlIQAISkIAEJCABCUhAAntIQMF+DzPVW5KABCQgAQlIQAISkIAEJCABCUhAAhKQgAQkIIHdI6Bgv3t5ZoolIAEJSEACEpCABCQgAQlIQAISkIAEJCABCUhgDwko2O9hpnpLEpCABCQgAQlIQAISkIAEJCABCUhAAhKQgAQksHsEFOx3L89MsQQkIAEJSEACEpCABCQgAQlIQAISkIAEJCABCewhAQX7PcxUb0kCEpCABCQgAQlIQAISkIAEJCABCUhAAhKQgAR2j4CC/e7lmSmWgAQkIAEJSEACEpCABCQgAQlIQAISkIAEJCCBPSSgYL+HmeotSUACEpCABCQgAQlIQAISkIAEJCABCUhAAhKQwO4RULDfvTwzxRKQgAQkIAEJSEACEpCABCQgAQlIQAISkIAEJLCHBBTs9zBTvSUJSEACEpCABCQgAQlIQAISkIAEJCABCUhAAhLYPQIK9ruXZ6ZYAhKQgAQkIAEJSEACEpCABCQgAQlIQAISkIAE9pCAgv0eZqq3JAEJSEACEpCABCQgAQlIQAISkIAEJCABCUhAArtHQMF+9/LMFEtAAhKQgAQkIAEJSEACEpCABCQgAQlIQAISkMAeElCw38NM9ZYkIAEJSEACEpCABCQgAQlIQAISkIAEJCABCUhg9wgo2O9enpliCUhAAhKQgAQkIAEJSEACEpCABCQgAQlIQAIS2EMCCvZ7mKnekgQkIAEJSEACEpCABCQgAQlIQAISkIAEJCABCeweAQX73cszUywBCUhAAhKQgAQkIAEJSEACEpCABCQgAQlIQAJ7SEDBfg8z1VuSgAQkIAEJSEACEpCABCQgAQlIQAISkIAEJCCB3SOgYL97eWaKJSABCUhAAhKQgAQkIAEJSEACEpCABCQgAQlIYA8JKNjvYaZ6SxKQgAQkIAEJSEACEpCABCQgAQlIQAISkIAEJLB7BBTsdy/PTLEEJCABCUhAAhKQgAQkIAEJSEACEpCABCQgAQnsIQEF+z3MVG9JAhKQgAQkIAEJSEACEpCABCQgAQlIQAISkIAEdo+Agv3u5ZkploAEJCABCUhAAhKQgAQkIAEJSEACEpCABCQggT0koGC/h5nqLUlAAhKQgAQkIAEJSEACEpCABCQgAQlIQAISkMDuEVCw3708M8USkIAEJCABCUhAAhKQgAQkIAEJSEACEpCABCSwhwQU7PcwU70lCUhAAhKQgAQkIAEJSEACEpCABCQgAQlIQAIS2D0CCva7l2emWAISkIAEJCABCUhAAhKQgAQkIAEJSEACEpCABPaQgIL9HmaqtyQBCUhAAhKQgAQkIAEJSEACEpCABCQgAQlIQAK7R0DBfvfyzBRLQAISkIAEJCABCUhAAhKQgAQkIAEJSEACEpDAHhJQsN/DTPWWJCABCUhAAhKQgAQkIAEJSEACEpCABCQgAQlIYPcIKNjvXp6ZYglIQAISkIAEJCABCUhAAhKQgAQkIAEJSEACEthDAgr2e5ip3pIEJCABCUhAAhKQgAQkIAEJSEACEpCABCQgAQnsHgEF+93LM1MsAQlIQAISkIAEJCABCUhAAhKQgAQkIAEJSEACe0hAwX4PM9VbkoAEJCABCUhAAhKQgAQkIAEJSEACEpCABCQggd0joGC/e3lmiiUgAQlIQAISkIAEJCABCUhAAhKQgAQkIAEJSGAPCSjY72GmeksSkIAEJCABCUhAAhKQgAQkIAEJSEACEpCABCSwewQU7Hcvz0yxBCQgAQlIQAISkIAEJCABCUhAAhKQgAQkIAEJ7CEBBfs9zFRvSQISkIAEJCABCUhAAhKQgAQkIAEJSEACEpCABHaPgIL97uWZKZaABCQgAQlIQAISkIAEJCABCUhAAhKQgAQkIIE9JKBgv4eZ6i1JQAISkIAEJCABCUhAAhKQgAQkIAEJSEACEpDA7hFQsN+9PDPFEpCABCQgAQlIQAISkIAEJCABCUhAAhKQgAQksIcEFOz3MFO9JQlIQAISkIAEJCABCUhAAhKQgAQkIAEJSEACEtg9Agr2u5dnplgCEpCABCQgAQlIQAISkIAEJCABCUhAAhKQgAT2kICC/R5mqrckAQlIQAISkIAEJCABCUhAAhKQgAQkIAEJSEACu0dAwX738swUS0ACEpCABCQgAQlIQAISkIAEJCABCUhAAhKQwB4SULDfw0z1liQgAQlIQAISkIAEJCABCUhAAhKQgAQkIAEJSGD3CCjY716emWIJSEACEpCABCQgAQlIQAISkIAEJCABCUhAAhLYQwIK9nuYqd6SBCQgAQlIQAISkIAEJCABCUhAAhKQgAQkIAEJ7B4BBfvdyzNTLAEJSEACEpCABCQgAQlIQAISkIAEJCABCUhAAntIQMF+DzPVW5KABCQgAQlIQAISkIAEJCABCUhAAhKQgAQkIIHdI6Bgv3t5ZoolIAEJSEACEpCABCQgAQlIQAISkIAEJCABCUhgDwlsTLC/8IUvvIf4vCUJSEACEpCABCQgAQlIQAISkIAEJCABCUhgXwmcdtpp+3prG7uv+55xn5Ou9dCHPOyk7/ziXAIK9pYECUhAAhKQgAQkIAEJSEACEpCABCQgAQlIQAINAgr2DSgzv1KwnwdMwX4eL/eWgAQkIAEJSEACEpCABCQgAQlIQAISkIAEjgkBBfvDZ7SC/TyGCvbzeLm3BCQgAQlIQAISkIAEJCABCUhAAhKQgAQkcEwIKNgfPqMV7OcxVLCfx8u9JSABCUhAAhKQgAQkIAEJSEACEpCABCQggWNCQMH+8BmtYD+P4ZEK9v/93/89L7XuLQEJSEACEpCABCQgAQlIQAISkIAEJCABCUhgQwSuec1rbuhK+3uZ+33LGSfd3IMe+N0nfecX5xJQsLckSEACEpCABCQgAQlIQAISkIAEJCABCUhAAhJoEFCwb0CZ+ZWC/TxgCvbzeLm3BCQgAQlIQAISkIAEJCABCUhAAhKQgAQkcEwIKNgfPqMV7OcxVLCfx8u9JSABCUhAAhKQgAQkIAEJSEACEpCABCQggWNCQMH+8BmtYD+PoYL9PF7uLQEJSEACEpCABCQgAQlIQAISkIAEJCABCRwTAgr2h89oBft5DLdOsD/llFM6Xkb7yU9+ct6duLcEjgmBn/7pn+4ufOELL+72RS96UffHf/zHx+TOvc3jRuB7vud7utNOO21x2+9617u6H//xHz9uCLxfCRx7Al/8xV/cXeMa1+gud7nLdfQRsz3sYQ/rPvCBD+Sv/NwgcJ7znKe74AUv2P3P//xP49flviIvPvKRjyx38B4cdd7znre70IUutDIGx53nHhSJI7+F85///Is0fOxjH1tJWijj1BuMy7XjQ4Ax5irzfNXlchdz4qIXvWj3X//1XytJOs/kxz/+8e5///d/V3I+TzKPwKYF+0/7tE9bJJA83wWbUj4V7Ofl5JEL9re4xS26L/uyL+sucYlLdBe5yEU6BhUYlRCNxTve8Y7upS99afeSl7ykW1UHZB4i95bAdhH4oz/6o4Pn5J/+6Z+6Bz/4wduVQFMjgRUR+JVf+ZXukpe85OJsH/3oR7uv/dqvXdGZPY0EJLDtBBgUff/3f393sYtdrDepD33oQ7t//Md/7P19F3+42c1u1t32trc9aOep+37yJ39y9q185Vd+Zce56F/HJD/96H/7t3/r3vSmN3XPetazure//e2TznuFK1yh43xXv/rVF/lxgQtcYJE+nGuYBHj/+9/fnXnmmd0znvGMSefb1E6f8zmfs0g3A8iwX/u1X+v+5V/+Jf6cvIXh13zN13Q3velNu4tf/OLd+c53vsWxMGAg/e///u/dy172su65z31u96EPfWj0vDe4wQ26e93rXt2lLnWphfAf4x/y+4Mf/OBi7POUpzxl9Dyb2uHTP/3TF+mlPIXhNPLyl788/py8vc51rtN91Vd9VUf+UJYwGL73ve/tnve85y3K5uST/d+OTOzd+c53XvAMgeOcc85ZlPE//MM/7P7u7/5u7inXtv+qWCKE3v/+9188l5/5mZ/ZhTDK+Pmd73xn94Y3vKF76lOfOjqpRNm79rWv3d3kJjfpqHcvc5nLLIT6KJOUcSbneM5h+Rd/8RdrY+OJpxNYVf32+Z//+d2Xf/mXL/IdYZl8R4fheXzrW9+6qIv+6q/+alLCmOS54x3v2N3+9rdf9N+pN6Ou5BmnbqRs/uIv/mL3nve8Z9I5N7HTqp7JSOtd73rX7ou+6Iu6z/7szz64f36DK/X73/zN3yzqOZyRxuyyl71s9+3f/u3dFa94xYVWlnkyCcBzDs9tmUCnDNzznvdc1Etxb5Sj3/md34k/J2+596/7uq/rrnvd6y7aSe4dhpSjv/zLv+x+7/d+b/Z9H7b9WadgDzuexxvd6EaLfgZ9F77DuG/ymOfm6U9/+qI+HgN5vetdb9EPHNsv/07/6GlPe1r+avDz1a52tQ49l/JJ/kS78YlPfKKjP/PP//zPi7x6y1vecnAeBfsDFJM+HJlgf6UrXan7ju/4joXH1JSU0ln42Z/9WTsJU2C5z14TULDf6+z15hIBBftzYXzu535u993f/d0HZJ785Cd3r3jFKw7+9oME9o0AnX7KeRZaW/e4T4I9IsdXf/VXdwgH2ej/fsVXfEX+avDzpS996e5HfuRHOrZDxnkf/ehHd3/7t3/bu9sXfMEXdGeccUb3GZ/xGb375B/+8z//s/uFX/iF7tWvfnX+euOfP+/zPq+7733v2zHWqPaoRz1qtnh7u9vdrrvf/e7XhRBcz5n/RrBnUqDPELx/6Id+qGMSZMwQXn/+53++myqWjZ1vmd+ZNP/Wb/3WjoF/DMTjPDhUkb6pxvHf933ftxAkho75j//4j45nG8FwzCibrL5DZB6y17zmNd0jH/nIDhHhqGyVLJnwwWFnrI5E0KP/MMTym7/5m7u73OUuk7EgGLHaNwswkw9e4Y7c/1WucpXFGZkw47k6Draq+o0JHp5HytKYMRn727/924O7wf/0008/QaDuO4D2h34s7cVROmSu8pnkXimP1F1T2kzE+u/8zu/sQ7Sob8mfG9/4xifVvfUgxFxEXATsozLK0zd+4zcuJmti8jDSwvNJOzLHvvRLv3QxSVzbnXwOys5P/MRPdH//93+fv25+XlX7sy7B/t73vvdiVXkI9M2b+L8veX5e97rXLaIsDHne06fkmZxjTCj91E/91OghTMaR31P6MrS7uX5WsB/Fe8IORyLYM4h4zGMeM6lCz6n9jd/4je5P//RP81d+lsCxI6Bgf+yy/NjesIL9uVmPtwWexmF0yA2FFTTc7iOB+9znPgtv2bg3BiR4pOH5kwf3U72Z4zzbtmUAeY973GOx0jS84Gsa5wj2rEb49V//9cn9a85NPfuCF7ygXnbxN2LCrW51q+ZvfV9yTkIVHcXKB+rKb/qmbxqcrJgr2CNkImhOtRe/+MXd4x//+ObuDMSf+MQnThJz4gTwJB+WWRUQ51hmyyAcgYVwVH2CyVzB/iEPecjCc3BKehCamXTJz3s9jom9X/3VX53ME4HjEY94RD3N2v9eNcvaJxi7ARjCnlW5Lav1bWuf+h3nZBILceeo7Lj1EVddv/3SL/3SYF1Z8xWB/bGPfWz9+uDvPD49+HLkA5M+iNKbtlU/k6SfFQ+shqNemmJMfH3bt31b7670+8nzOfbLv/zLve35nPPM2ZdVGbSRN7/5zXvvfa5gz+qEqQI/beT3fu/39tZvcS+ran/WJdj/2I/9WG9bG/dQt/QLWF3RZ+sS7JmQIWwteT/FyKOHP/zhB7sq2B+gmPRh44I9nVVmU1lOmo0K+1WvetUiBA7L+q561asuKr5TTz31oPAq2Gdifj6uBHKHyJA4x7UUHI/7Pm6Dsb5crYNzBfs+Un6/LwR+5md+prvyla98cDssByeUyz4Z3t94MVVPtHqPDHSmetjjwcTS8Wx4ZyOsMmDG04owlDXM0Hd913ctwhTk4/hcBXuWN//rv/7rYokz4XQI54LndfVuJkwOA3j235Tl9mLomnMEe8ogZTEb+YEHOOOWs88+u/usz/qsxVJwBvF44A8J9g984AMXS8fz+ejHEfrmzW9+8yJ8At78OSQS+/KeBkTVTRmey4T+GbM5gj2rNRBVsrEi45WvfGX34Q9/eFFuw1s69mGSjlUgfdbiSbgNVo2QF9wD+ZPtCU94Qkcon03ZOlj+1m/91glCCWXy2c9+9uK+8WS84Q1v2BGSIwuHPIuElmDfalmwZ7+3ve1ti/r23e9+9yI87eUvf/nFOSvLMcGxXmfVf+dnnnTvc9jEfK9DHKfWb6zoYsIlG3X6c57znEXINHQYwkwhQmcb6n/m8SnHvO997+vwIqeeJH94vvHmz+WS/Qiz9Ad/8Ad83Iit45lkUvN3f/d3T1rxQh0H17POOmsR/otnibaCNnjo+WnVl0yOsfKQiUdCieF5T2ix3Ifg+Ubopo3ahFFGqD/6JnUjDXMEe5wXuM98TiYICWtGaJ1rXetaHWFt8u+wYbK+z1o8l21/NiXYc0/kI20a90/ZIfxM9cCnPetr06pgTyihIY98+NHHoywPGWWsetaTRvrptB/0AXHQJs2sKqRcKtgPER3+beOCPTNmLJ8IIwOZ8aKj2jKWBtOg8KDRyaIjrEngOBPIHSIF++NcEvb/3vMAZd8HY0O5qWA/RMff9pHAk570pANReWwgtqv3T4xS+r/VGJzlgRD95CmCfUtc/rmf+7nuz//8z0+4BIN7wlnka+ANzzL+aiHYkweIKqxoaFnLC/3P/uzPFt7Prf3X8V3uG8X5STeD/yxoTBW0OMeP/uiPdoSfCCPsAOFXWsvvEQ+IoY643hfjmxi+eSUFMXjJi2qIEdUTHE9MBJ5NWG5743oMxhHWc6iHOYI995nFP8Q8xneU7zA86hGAwuCN4NAXxub3f//3T8jblgcwz0Au63gkPuABD4hLrH27apa8SwKRLgzxhZA3NRY2k2iEks0hc/rEVsLuIeDyfA+FuWGy7+u//uvj0ost3tFDx5yw84r/yGz3vY+4yvoNwY+6KJeN1rNDdn3Lt3xLd4c73OEg54Y4k0aM8FPkTau+QtdhEhTnzDCec8r1piyXm7jmYeu3u93tbifoW5wXHn3vIbn+9a+/cE7lHRMtI6xdDmXC+yOoH6vRntBfyuHaNjkBwmT/LW95yxOSRZ2OaJvr+zmCPRNvvFMhjPJBGO1cnug//cAP/MAJov0P/uAPLuL5x3F5u8r2Z52CPWlmguuZz3xmM0Y97/uERXa6qOFm8n1XwZ7+y2HfdcCzi3d9NuLUEwowt+fxO44dX/iFX3jCO470sA8607YbF+wZEDAzFjZ16Q6NCo2EJoHjTiB32hTsj3tp2O/7z53qoUHCflPoFktiDYmz77ns/WUCeNvFABQvTwYo+2ZVsEf0os5jm4XIqYJ9FTuHhEni9tL/Dg81roFgUoVRBtyXu9zlegXonCdVYNh0/yT3jRCDibfMS2DrQH2qYI+wxMreYIQwiof41Bf1ZjZ8ZpCbY9vDnJfYIhS1rArNHNs3YdI6/jDf1bYX723KJOklhFPYVMG+ekwiwOChRz5lQ4T4zd/8zQPm/NZ334RfeNCDHnRwOOfifQvVEAqquMCzggC2CVs1S94ZgNdiGC/pJcxSy5j8yCLfHNGsdT6+q88TdTUC4VFYZbvPHvarrN+YoCHudxjPI6sv+uoi6lKEwrC+OpRVHUwQM1E6ZJRf6reoW9mXyeE66TR0jsP8VsvNYes30kJbkaNHEKbkhS984dLJxMP5Qhe60MHxCK1975up76D4h3/4h+6Hf/iHD45d54cs2NOmsWKKMGXU5fn9JnPqHsL65YlhJnhak+C0FfmdP333ver2Z12CPW0VzgBjgjoCOM9Lfn54nmBcbR2CPZO2hMoL46XHYx75sW9sFeyDxLTtxgV7HuJTTjllkbq+AcK0pPfvRUOARyKFiSXHFGiWlLzpTW9azPoy87sp4+GLpcIsvelbsjKWHl68EUtgqLTyLGM+lrdps0SKygRvKyp7lqfgPcXS0te//vV59yP9zNI4vIhY3oP3C3GwWKrDvZFHvK+gDh5bCabjwdvoeRM7AyLOw4u63vGOdyzynHt+4xvf2Dr0hO8iPXxJ7MyI6QpL3nbO+eFJJ58BNcsGGZBu2nKnLQbETGiRRpYa0mGAG/cPR14UNNUYxN/pTndavPQEljSEnIuBP/cMy9e+9rW9nTquw0w7y5+wc845Z/J7J0h7hECgszfW0aEzgOCBBwKiAullwEY6SSPPCXXMUdkqWG4q7bBDrImla3TMWc5GPvCispe//OWLl0MN8STvYjKW55hj+gxvR57ZMJ7P1rNUO9UMxsh3BurUc1yTZzXqtykv5qNtiMEuHiDxckTCELACDBYIhdSbtBk8b1xjjtH2ECbi6le/+qJu4xliIMKSWLyYeJ76jHJzi1vc4oSfaceyBwvlm38tY8kong6bNthFLEOW68aqOViTb9Tx1CeUKzqVCGlRx7bSSl1LGeH5hgn1Gm0gx1JW6CDSsR0bGHJuvH9ZPoz99V//9WJ56arqTJZ2085TF9GWUXa4d8oiAxfu99rXvvZBWAa8p6mjxmzb6zfSz72z+pE8ov3k2aHt5bkif/Aextt4zHL+xL6IBzEYoT5ptWOw3ZSAGela5Zb+DyFsqP+IJZzFimUEewbolLWwsdAfxNol7EFY36A4fh/b1pVAlIXqjTt2jsP8Tl1N/cBgn/5uWBUY+8Sm2D+2WYjgO+orJjmWNdoFrh2Gt/o3fMM3xJ8nbWu4l6ni+EknWuILxCbqa96VwosMo+3nuVxGsKcc4J0dRh2Jd2Q1+GQhgN9Znn//+9+/7nqScIwnK2UgG20GYmNe1cDvh83LfI2xz6tmWcVT2tchhza86sOTmnwcmiQauxd+53rZ+5W+CJN16zb6RfQFspGOyFtE5z5vZgQwVvyM2aratLHrLPP7Kuu3uiIKIRhBuM9Y0ZE94PtWBvUd3/o+9+/5nTBPeBVvwlb9TNbJ9746a869MQmWQwchvPZNqNS2l3Zwavz3OWlq7Uu4wlvf+taLPj1tb4jN9P2XEewZ1+UwdH3OWq3VPtQBrRVZq25/1iXYt/j2fYfzQJ4gYuK2Ne5etWDPWIrQNtE/Z3xL/Q/7OaZgP4dW121csGc2LJam0nGYssx3zi1VD6PWsYgZLJuJSqW1z6q+o9IJEZL7RVSNju/UayD65Ib0zDPPXAzu8vE8OHTuEbKGjNlHXmox98EaOufc3xgE8LCfdtppg4fizcRMPYPOlhGDjkYyylNrn/gOgYyl50PCG8uNs4jIklk6KFU8i3OSj5TnTb8ImU5bVJQIVwxGmVkNb8RIX2zpODAwQvToMxq+u9/97geCW99+fI9IgjAQglzdlyW4CIxhrKqZ8vK5KlC0vP3inFNi5iHe8+K7vsmtONeqt6tkueq01fPx7OC5jbgcZaruE39T3vHi6hv00GlD9A5jgE3ZaxkTi/m55jmnDFfLHXo6bXQKqL9yJzYfgxjK8uyhwSvX5foYnV8ECL7DY6FlnIvQBH3lPR9D3Ub68vL7/Duf4YgI0jewvM1tbnMob2IGPAx8Nm35+Y3BAu0sy377jDrp3ve+9wk/I/5S99aB+Qk7/d8fY2UyjllHncm58QDiBWzZEyiuyZa6knaFdiJsyksPt7l+i/ugjD/ykY88YVlu/BZb+hkInGOOCjl/4tipW9q2Kc/m1PNtej8mZlptc36eKOdT+sr1BYKEyRiavKOOJlZ6GIM92u9lDecUhJAw8j+LPPH9urZ9LJcV7KvQSXzcVl5NvR/qCQSNsDHBHu/x3Kdn0gqxdhPG5Gurv7ysYE89kNtY7qNOwlXRKd8n5aiOW2q90fKapy1BTKqGA9WcFwnX4+f8vWqW+b4ZJ+XwOK101XqBibopzg2tc/FdLQNMnNPvWbdVb9o515vCaZVt2py0Td13lfVbrfvH6pYaoqtvNcvUe2G/xzzmMSfoAM961rMWoV3mnGPZfVf9TLJaAefBMN7V+JKXvCT+XGpbPeznCPa0+7T/m7DQYOpkwrKCfa2zcf5gLJGNsRYrr1pjQSYJmNzOtur2ZxsEe8bcrH4MwxkMR9Jqqxbs6TPmfiMOJ4TXmmsK9vOIbVywp+NAoxOGANPnKRj7TNniPcDLu4aEknyeOSJMPm7u57pMCaET0XyO1ZlBBsnhFcp5qBSJs9knGtRr0QlnZm7TQibpQNAjHl6rkq3p5O+hTlYeTLWOrd+R53QqqfxbVgV7PAimvHSLc7bimbausYrvcmedUAG8BCq8Z/rOj7cwlXuf1c5G337xPQICL4SpAy5+ry8ywqM1L72Mc+Qt3vWI62F93lfcJx6J1QMrjqtbBnhMmuHpuilbJct1pzlPKE651lCHuj4/Q8tblxHsKXPM5I/VHQgqLH9nZUDLqmDPZF5Mqrb25zvK0b3uda/BiYCb3exmiyWKfRNn9dy8OKm+gI999kWwx7M6D2Dq/fN3S4hkUpsO5hyjjkGE4HwtW0edyaoevEHH6l5WADC4CBsS7HehfuM+aMd53scm+eKeX/WqVy36Z/F33eb8qb+N/T11QnjsPNv2+zKCfY2P3hI5831WD7VYsZf3mfO5tv1j/Y455z7MvssK9kyshrXq6z7RJ45pbbPXJPUV4mffBHMNfYLAtcm+TCv9Vayd6vVfyyYTtXnyg3adiebwlq7Xrv0J2OeJ6dbkB+06E6qtegpxaW47U9N02L+XYVnvm/Fcfi9cK0111QLlmvHTsoZzRR5rj4m9y16nHrdOwX7VbVpN+zr/XqZ+q+/mIPpBnzMOaacPkx0PVvH88PxSnsOW0Ufi2FVtl3kmuTbiMSsMsRabZdoKRP8syA5NtFVn1b73ESwSuKH/lhXsa9kk1FB1jMSJFWfWlv3Jn/zJSeFZVt3+bINgj2aS20s40U+p1ifYcyx9D8bVc4wVWvm9PjUUDx74nBP9bsgU7IfonPzbxgV7BHqWTodRWPhuigduHNPa1tli9iF0CedFbLniFa94gtcvvyMo8GbrdVr1jqfS4aGaY1kApINfPY9ro8e5ibHJsntCkpx66qmLpfq507rJ2de4Vzp4j3vc407qPOOFS3oZ3OGZTQMVnjhTBXsaSI5HwMbLlrBLNBZUKvm+2Y/KpiXsVMEx0k0aGMhybtKWl5AH6xxHM45b17ZP3IhQESwBpjHJ8QZJy5AnYi1jsGRCh7A6PD+EA8LDoopTrHKATTauz6A0uLc6L3l/PtNRy0v5EZJb8erwdCYd2eI55/4pP4RliRl/9uP6iK1sN2GrZLnO9BLCpC6ZRLxmMhCxGw/nqDdj2d1RCvaZBYNzJt7wkouwM/l36v3WCxTZJwv2+RjOSZ3JAJhnnLfbZxu6d/bFszTKPMdRxxBSh+eD8C6cMw9y2ac10GXilfYsT0zw/OX08GxSH7UMD4scDqK1zzq+qwJjZUFe8axyfwz+uD8YVc/hKtjjycX9Ei6Ec+DFS/3GRGW2pz3tab1eHuuoM/PqD9LBvdCOkeeEBKMeIt+rDQn2u1C/cU94x+bySRvBQIH6g/wlNFAeSMCgr07nNyau6v7U81GG6Cf2hbXjuSPk4b5ZfZ7qc9K63xr3teVxnI8jHAvhFsMO63XMKkZWPYZNFXNj/3VtlxG0aP94xsNYJYKoxZiBVZfxbPPcMylHfczvQysaOBeDbBwUwqirH/3oR8efB9vqbc5qHZx3uN5R2rKCVp6ooL6oKy8Q5G91q1stbo17pK3IdTyMcrtWY3DT7yeEUbbsVQk/6qzoG3KNKc9UPt+qPy/DkjqR9iyMupEQNUNWHTOmONG0zse1GSchbofBkX7kJupg6qrrXve6cenFNrcTpKXPAZBnlPFny9bRprWus67vlqnfWFlLHRPGBE6eoIzvY8vYqq6+oq82V+yL8/Ec0saFkXfLRCCI41e1XeaZ5NrZgZD+Ks/Jl3zJlyxWrjN+4tnhHonswFiVvn99GXy9B56z7GhH+0z7w3mytbzNqQupE4/SlhXs64Rgfal1bRvpd+aJjdaK7VW3P0ct2OMYhm4SRpnAmbGWDX6vgj1tRtZy0AmpH+m7MM4dE9qp72Msy/WImMH4ljBb9Jui347mQpml7064nmoK9pXI8N8bF+wRiVreAAzGiWnLDC8FZ461GlvOVRtnPCARVqMwcQ0aoFbMpznXH9s3iwXLeDDlmUE6sQzCwmrjwgPCSgPiGGfDGxBP8DwoxvOEWdhNWZ0tptJglhQBoxoiHB0KROe+5Z5P+tRb0emE08noi4XMag7KQV59wARHK05eS7BHLMJbN5dJQjww6MrliEZ0Sqzeep/L/J3LE8dTYbJ0DsEqjIEJ3ljZc3hMKGIA9PznP7/jBVLkTTXulwYhC+bEtOe7atWjZ2wVQm5M+yZpmOijbIdx3xzHv2yUca6f7x3xn0HLJgzRbZUs15Xmuhy177ng+kymUG9TxloTKexTn5/qEcc+Yct42MexdCqYKMoDhRqPk31ZydMaRLYEe+pL6qLc2amro4biMdcBE9elE0PHPRtL83l5ZtQdXI/r5Pol7x+fawd1bHAVx21ymwXGfF3qlCx88RuDtfvd734dbXIVGwgHQ+gJRAXKZGUY5+blZuwXNpQ/q64zCSFF/oaRj/Ql8rNBhxgP2Rrap68e3pX6rTpH0OdgQJVfxEn7wzORQ6PNdZDIL51lQMYy6eNk+XmifE0RF2udjqfa0DubmMTnXSBhU8S/2LducZKgT5YncqhT+16SV49f59+1fqZ/UPvI9fp11R/5wXtEsjBQjyGfiPdOn73P6JMSWi6EY/ajfHPc2z717gecVRCuyZdoJ9intcyf7zdtdcwxdVImi4G1nFVPeEJJ4K2axdnqZcmkCWFAw+okPbHNc9uCdyp1V/bo5V4YQxyVLctybt0Au3C64F4rq9b9816WOIYJaMQ38iMLPRw39MLb1nlX/V2eOK/lauq1NtWmTU3P3P2Wqd9wXMttChOS9I37jDqJPn22sQnhvG/9XJnTZ6bPftS27DOZ+5isEMeBgRVnQ0a0BdqiIWeyqpvQz6UuxWEJT2baqTvf+c4ntLubHO8O3d+ygv2Q4wH9CxxGYsKcyQ/GpYwnwlp97FW3P0ct2LM68oY3vGHc8kJ/oh5oWRXsW/vEd4j3sBp63yXj79DUKLv01Xlucn8lzhdbxrjka175rmAfdKZtNy7YkywKVcQQbiWTRpeOKx3YKXH2asXPwLHP47l24uYOIlvpHfsuxw+c26GgUspvXoYHHU+sDpAYLODh1BfPtQoCm7j3YFPDPOBhg1DVipEZx7BF4KLz3jIqB+55zOp9U7YQ4atVwZFz94lpePvgRRg2ZQAY+x52mzsGnKvPW4aBJY19GA1b9aiO36ayZJBJKJwYbPaJ61Vg7HtzO9cnRmt+XvviYebniOMQ6mkoWkb6EPticEFe0qDw/K3bVs1yXemFTwxeWx5vc69bn591CPZ0DvpWyOClywswwxBkeC6rVcF+yKs0e81QhvIAJ85Lpyl781PGEJL7ylodKI2FC+E69XnaFcF+aAlv8Gttpz5D1XOwz6to1XVmHURx/tY7CWi/Ee+4n7DWYILfdqF+oz6l/s+ibPV+ivtkm58f/h7ysuf3bAr2v3/QzvbVPZkXn4lZyyRY2Itf/OLu8Y9/fPx50rbGyKV+XTZMSF3GvooYxycleMkvlhG07na3u53gXER/OQapY8mgz5r7XnV/JvGYXMmhsuo+8TdtMwJ/n1NK7Lep7TKCFp7y3EMYoXDu/amQOGFZdEWQYuUHdXmO319XuNWxXG7vq8dpOJaQhuy131ohGmnaxHYZlqSr3kcNk5rTXp0j+G2K41h2FMvni8+US8bo1PFHabnszB1fk+5Ntmnr4rRM/UZfOYdkHBofkm7KWBUp+/pbY/fJRD59gdwvoj486nBfpHuZZ5JxFOOpMMTJKXU7+49xZ8U67PvCv8Q12dJPwLucyd1tsGUF+9pvZNzFvWGUOSbOMb5j0hatAwfPsKoBrqP9qc9CXHsTW1YZZ8cvrgmzs846q3n5OYJ9nIC+4wtf+ML484QtzkqhraABUUb5N2Y42RGBIN4fqmA/RuzE349EsKciQ1gm3MKY0QATj4oBcZ/lBpt9hgaFDDQZWOcB51icz77rTv0+VzAcQ3iOKLD8jddweO0wM8rAPYzBV35xCGJTvMCNdGfvcxo7Gr0hq+E6NrUErQorLa/LoXQf9rc8+O+bqKiC45DIjBdoXumAZxkDik1YFZ/OOOOMjsFxy7IoO+SB2jq277ualwycWpa9gPqEfY7LZZK/eblMfc8A4UDyc9GXhxwfRiOPOBq2rHgYx69jO5XlOq5Nmc3vExkS3qZcvz4/6xDshzxHWKKXX1zbV96rYF899/K91hAlrDKok4y1/A61P3Hu3CGd4lm0i4L9JsKukR8Ia2Hkf2uZ8arrzHw+Bg3UM31eUrV8tAT7Xanfajkcq4drnZBFtcizvm1us/Wwb08WVna1X4KohgDRKps1fj3nWnbilqX/WYDlmWAVIp6822DLCFp4e97hDnc4KfncG3UMK3MRnnlJNn2gvHqVfTg+e5PVE/HMM/CNvn/9nb/pN7FKYWiVROu4dX63jKBFaEomdMKySFWF91iNWVe48U4p8jEM5xNWbIdlT//sUANDJtAZc9VQC1Pa6jj/OrbLsCQdtV8yVD9SfqrYN7R/3OeYYI+XKyuVKetHaXn8v4xgv8k2bV2clqnf0GFyTHrS1hp78X0VXvkOW+b9MThTEe89nIU4D6EoGX9sgy3zTCLeIqq3jDaQyBE4CuLkR3+11vmE9esTRzknbQuhcVj1MmQ8s0yiHfUzGWms5SbX+7FPa1v71+EoRaQINK6Y6AkdqTpl1kgU62h/jkqwJxQOkxO5v0F9ThnqsxDs6d8xmcGYk74JojvhVk/9VNjsWLEQ56AMwbq1+ps2OvIg9mfL2Ji+ERPCrMoiGkVtewgZStuBKdgvMEz+70gE+0jd7W9/+0V8ryleK3iN07ltDTyy+DFlwJE7c6Rl3V4WdSYbz5vwGueho5INqy9OQvSKuI7sQwxLhCisxqDD+56HoWUx+0V80ewZvkyD2zr/2HdZOKYiGBI4xs7V9zsrDlhay+x9LVPEPowZwT4hr4oL5EsOM5OvS1gYOs1hNMjEL92E5cZsrIOavTanPBuRfjpVCKCwZGAZ5Yffmd3OK2To4LSWFdd4tq3BEefFUz4q/7684ZpMfIXRIDNBktMVv8V3LOclVErYUS3dXQXLuIdVbmsnn/cWMKjmnRLLWH1+1iHYj9XVtZ6Jjl6+nyrYM5hvdUo4pq7eQoSqsbTr8s1cn+fr8jnKJuUylptPeS7roJI2Ly/xrNc5ir/zBB3XH3pnxpz0UTfQqaQuYgCQX+pLRz0vC+2bfFllnUlHNNf1Y96K9V0RLcF+V+q3Kq6NvZOnejZVz6ehcqBgP9/DHp4MhvL7a5hUoS3OoaVw9uBftLuRD1Pqotg3tgxc6wCOvKuh6mL/o9jWtm7Kisi6WoF003flXquAzmCXlQzx0kH2xekAAaxl9Edx3Kn8W/vyHeMf2h7y56htGUGrtl/0MWhbqyc8XEPYZ6zDpFJYnezDs5KwOGFnnnnmwqmjjreoq+NlmrUcjAllce51bZdhSVrwsKQfk8sPqwh4H1yUEfoahKvM74aK+5gi2NOWhpdwvk6cgy11C6tj+/pPed91fT6sYL/JNm1dDGq5nlK/kRZiYOfyweQWDoQ5jBnh/2g/cr8r7qPVH47f+rbVgYExH85vrTFk3znW+f0yz2StcyJ99NHpq1erY+O+cS/H0b6iNTCOnGKIpqycyO39lOPWsc+qBfv8rHOfOAnQJldnrbqCax3tz1EJ9jl+PHmGBoQzIqFs+oz48mhiPNfwatmd7nSnxerMXNejCbRWCtb+HucjrDn5k0PV8j2a493vfnc+HhgT50zeKNgfIJn04UgFeyopjOWhdGBpGOiIZO/3fBfVwyJ+y4Px+qDGPnlbO3p0tFn+sS6jokXMCMteotUjin2yx3Reel/F/OotEuefs2W1AfzWbTmP6n0c5tp4COOJw0qEvnJTz98nclfBsb7kKp+HGfJckTGrSH5swjLLMe/c3JGjom4JmJFmOvh0XnkW8+xt/N637YtjyMwq3j1hrbiZxPjLsef6OFZvqzjnnC2DXkTETdiqWa4jzeQzS8+rESIGjxcGyIRbooxNsfr8rEOwH1sNletL0tyaTMqC/dgzQQxcnomwVkxmhKmpdU+cp25znV9/4+/a4dx2wX6Ma+se63d4E1E+4wXk9ffW331cVlln0gFlwBXW99LI+J2Offa+agn2u1K/1dWCvNRxLFRHZo+wk987EIxaWwX75QT7GtsbtjyP9LvocyMqt8QX9hsSDvi9Gv0g3t2Qzze0MrEev6m/cz+Ia04RtPBozC/X5Li+MQi/1Zj3feGFqhDNsfRNeI6Y0GJC8CY3uclCjM6D5xC52f8obRlBC0caHDbCYmVOFu/ghQATwl3tT9QY2/WFyTgskc85vnF9EW1u+0kLkwN18iXSuIntMiwjXdVhi+95zum/sUWgifLD3/GZ/YYmk/i9Gs5QvJeJ/jp9kXwu6gzq9JYzXT3POv7OIl7f2G7oupts04bScZjflqnfuB5lBG/3nJ98D0fKERM21fOW38N4XtFcphqhaLOXOOUScRmnh22xZZ5JJj2Y/MhWvbzzb61QiZTD+pJYzotYn/OHuhMv+rPPPnsRw54VXqxwy4I+Ey+MKY5yIo37XVawz30/zsMYrK6YZzIy4qzDgMnKMCYraD/C1tH+HIVgH57ycV88P0w688L7VRiaQH6nEeekXFOeslXBnnSgl+XIIXn/HPOe79F5WB2hYJ8pjX/eCsG+JpOOLx6IvOAmV1QUCio1ZnLCaHDwcAyb0qmtHWaW9eX4Y3GuVW7zS39yZdKKC5djc+eKK+IwRrqqJ1V8P2eLB/mQR+icc/XtywCRTkEYlQvxtw5rlBE6irmMTDlnX6euDhBaDWicv8aF7BOaY/9VbrMAwjK7Vjz+uB5Lmk477bTFnzw/fYI9S82ocHOjH+cY2/a93JPjKFsh/uP5Q4OTZ2AZxNGYhvWJvDQa2RMk9p+zHfOEnXOuoX3XxXLomsv+VgXu1nkQehgMs1ojvLda+9Xnpy8vOXbq85MHY0PlN9JTl3+3PIDyoJ2OSA4rFueJbY03XwX7ukIqjpu7HaprONeuCfZ9dewULqyEYvJzjlAf52Vi/KlPfWr8ebBdZZ1ZPfLGVu7UPkpLsN+V+q0+X3nQdAC7fMgrL8aet3xo7vtM8QjNx+7D58xtSt2X7xmv1xz/O/+WPxNGkRUq0e6POQDkY+nXUZfGykV+o29OXUZ6t8mWEbRak2hjAlXu73D/hJzM/R3aC8YaeYI3e4BnZkyGPO5xjzthX3hHSMy87yY/LyNoUUaypykiL0JD7rtWxylCZDBxEUZ9kFdtVGcnRGjKb3jdUwbxRswOB3U1HH2Wo/REXYZl8KAs5XCq8X1rCzecHcIOM17BqY4Y2XmSbqwNjOuuY5v7iMv0OzbZpq3j/jnnMvVbpIXn6D73uc/oOJqwq4j4jG+wuW1SrU85nvLL2GKbbJlnsoZk4X7QPJ773Of23hqThYRqCWMsFpEX4jscInI/uO/9btSv1J/5/Rx4U1O2j9KWFeyrtkWfAq0g2s3qJFPfg1ed89bR/mxasEfvuulNb3qQnTw/tKk1fPDBDkt8QEtjVWDu06Fd8gLlbEyORF7wPQ5+NbxW3p9JOl6MHMYqdfpKCvZBZNp2KwX7SDoNAx4YuWMQMatin1pRTomRVT1Lc+zDOO+qtzwExHPCEL2i88QDx8PBwxfCc8T+rXFtKeA5REse0HLe1772tWxmGWFF8KRdp13jGtc44eWPzAznF4Qsc20GmXg5BrM4B7P9dCqYhc5LhJj8iQqmr1O3DsEx0rXKbRafxkToKYI9XhQMGmPQHmmFU3TS8swpIZVy/MEhwZ6JGV44HJaXIFPueeld5GF4XcW+eVuFfTzR2H+OIZStO4zIOlnOudep+8L+AQ94wELcieej79ixpZbreH7yYGyK2FcnQCn/9UVWWbDv84IMBmOCPWFa8DANI419L/6JfVpbzjHkDbNrgv1hXjiJGEBHPxttJufkmacc0l5iTPzkeKBTBPvD1pl1wv8Zz3jGQUzGnOb4TL1KusJagv2u1G91Vd/YRBP3nEVM8q1v0jj4xDb3bxTsp3MLfqwEIaxLHnzFb2zDEz73J+pAN++fPyMWIibkfgAehbQBR+Vpm9NXPy8jaCG242AQNqX9yW0Lx9X3wrAaEYEsLPr68XfdVq/Cw9Sr9dzL/r2MoMW1cjmjPodnlM1WnYwogOdkWBW06ooG+v0RZo5jePcZ/ctsuS7ie/hGW5L329TnZVnm9NFHYRI5+tH5N+4N7jzXhD8Nq5Mf8f3UbQ0BMtaPmnreZfbLfcS+sd3QeTfZpg2l4zC/LVO/5esxCcPzlsXh/Dv1DpNr9KeJiIDNYd16X8qU1Xk5DZv6vMwzCRPKYbaxvlF9B0cNL1hXqPOMEUatr32tXuQ8+5t6R2G+7/x5WcG+TlQw6ZrLHe+uyhzuete7nrByswr6pGnV7c8mBXtCZtb36TDuYAX8qq2G3MFBoDoJ1BBN4THflxa0XCYFw5gkZ5ynYB9Epm23WrDnFmpFX5fysbQod8qmCPZ1phePvDygnoZu3l7VG4TKHIswKoQLoXJjABSCPi8noWIKq94g2WuffRhc5Eosjjvqbc2jOV5cfWmvAyMqAGbr6fi3jDISS/v6OhrrEBxbaTnsd7nhaQ108vmnCPb1vilDDI4I3dSyKooOCfZ0BBHpw3J668RZ7bDEMWxrzL8x74V87CY/r5PlOu+DED63vvWtFx5trMjAe7I1ABwSGOq9D3nYV6G7z+MrD8amiH3E8iNeX1grDbnuoKxnUSaOi+2YYM8kR/b6Q0zOdXac57DbXRPsp7TDLSZ1aSt5TvtMnUe7WK3WIZsQ7JmAzCvEePlknrSpaawDqZZgvyv1W10JMCW0CM9HTAaOPW+ZnYL9ciFxMkM+M6mFwwKOEzi/4AXPAIw+EyEFn/SkJx0cwuQmfYYhYwKKNj1781HvEZOc7TbaMoJWrXOnhHOq3rq0NXmwy/NCPoThScjAu8/qZN+USYO+c63q+2UELa5N3VydQvieep0+JBM+2eokZl0tV1fp5WP7JjZynRLjrHzcpj8vy7Kmk74a/R7aT5zYGOPQVyN2P5/rWBK2ff37eu6+v2t+joUr7DvPYb/PfcS+sd3QNTbZpg2l4zC/LVO/ta6HwxHvZ7vWta61GAMQsQAP+PDizRNeQw5W+dz1HT781tdPy8cd1edln8k8LiftY5OBVduqHvH196p9tfjQltOmhzFhTz1wVLasYJ91i5r2Vt3FmIs6Lqz1TsFaX8W+y7Y/mxLsCVHDOCcbLyheVxjve9zjHovwfnE9InsQOjsbjgjUFWE4Euf3XsT3sUXXzOGIcQClr6RgH4SmbbdesKdQ5KUWLbE3V5RT4qPXpZaPfexju1e84hXTiC25V70PPOvzSzERIAn5EUtAiRFFXDLi+mOtgS4CNZ2zMJZB43m8jZYH7ct0qvI98fDnEEZTYijmMtJ3/TmCYx0s9AmOOd2r+pzvJQvgrfPnhq9P8MyNPPuMxRTMHWSuOSTY8ztlGwEY4/yIoDEpkL1jh17+iaiKt0DYmFdr7Lfp7bpZbup+GFjzUnC4Zy9Krs9z0lpGXp+foc4iS+Tycvi+56eWNTrTEeO2xSK/ZJnfW53mVQr2XCN3BNclqFTxiPZj3atFuLc5ljksK9jnlWhcmwFiXlVW08PEN94nYX0DwVXWmXiLMEAOGxtIVW/ElmC/K/Vb9QrDaYCJ1iHL5XQorms9RxbX9LCf72Ffebb+rgPdsXaViV08o3gJdBj9KcT6KrjG71O2hAYgdFQ1xIYa17fuM+XvZQStGsqKdof2Z8iqyFwntGp7hlfr2MrY/BxwbeoK+k99xgv4cpjB2A+BLWL+xnfLbJcVtHLfKF+37z1auT1h/9o/pCy2wp/19WHriwmn5CfiFwJmNa6xijHjsixresb+ruVyFWPF3K/n+qt6yfzYvdTf8zPVN7arx+S/N9mm5euu8vMy9dvc69doBkPOO3Fu3i1HWcvOP0OOWXHc0HZbn8mIlhBpr/VVfB/b+g6OGumh9m2Z+GXsMmT1Oc8r2lvHkS9oTuFQkfehXZrzfoJ8bHxeVrBncpYVVNX6VgDW8t8aN6y6/WkJ9owN6niZe+Dlra0xc72/+jeaIBOh+fnhPTpjfe56njl/s4qDC4T3mwAAHMFJREFU1R1hhGFi/JSN9w7idBfGBMnLXvay+POkLY6brOQPoy9CninYB5Fp250T7Cn4vAwqW571zYJg3id/rkvuGWwwk7xuy17eDNpZ4oPwS5rpuDFooaLC8H7Ig5hW41gr9LHKed33N3T+VcaOrF6YY15htaPe16mrgmPLOzfucZ8E+yxmTfGaqAOpMcG+dkxoOJkdzpMurec6WLMlBFJe0lu9EfK+R/l53Sw3fW8MihHBYzki16f+pHNZrb6glcmiGo4mjqETkmPHTxXsh14Ezblzp7lPPF+1YJ8HjKSBDk8OIcV3h7X6otNNrAqbm+ZcLywr2Oe84fo1BnRNE5Ptp5566sHXmxDs66qKMSeBGhasJdjvSv1Wlx7TSSfOdp/xokLCGoYRC5MJ4SmWhUoF+/UI9rnvTJ4MTbLyex0YIxw/8IEPPHT/OTt0cJ0wRFGe8cNaTXcV0vvOn9NFP50J4CGr/VwmRPKqg9pW1DAvrXPnPgW/j7UvdXwT5+zzOo/fp26XFZnrykyu19dO1EnRlsMSx9fyy3fEgYZrNd4/gBNU2JizC/vVEEZxLNv8Mvr8/ZzPy7Kccw1eYkzIyzBY4jRDeT6M5fae82yDYN9XTobuc5Nt2lA6DvPbsvXbnGvWEFVMxNPf7jOcDXHAyGJjXz+/7xyt77f1mayhlXC6ROzsM/pBOHOEMS4mRHEY7Wq8j4PvWmFeYt/Y1lAy9ZyxX2xr/yy+Zzs0fsv7DX1eVrCvK2e5Bp7w5H0rdGhup9m31Y9ZdfvTEux5LwFj5mqEH6Q/O8fIG7ST/Py0xPM555yyLxNstBlhLe956sxcdgmrTQi6PmPiIY/3aXvpKynY9xFrf79xwZ7CFx0FPKPH7Ha3u90JAn2r0qqDfB4MHuCW1Regss8qOl6ta9XvEJuI/40xc8lMHDzyqoGoeKiUmEmOh7U1K13D7MzxXqtpW/ffdanwmFfiUHqquMHyoBx2pR5br61gfyKhPCAcE87rMj3ONCbYU47pOIThMfeqV73qhOduzGO4rqqgDiG0VavxjuscxXbdLI/inqq43ieK3vpTIXXyLPpQPVw7t30d+SpwEDosT9xkHrVe6Jt8yu3F2ABvLCQO1yeeX/bCW5XIlO+tTjr28crHbPpzHsD3CTFjacr5PSaQ1cEA5+4rm/m5HBNqpqxKypPvXJfBwKtf/Wo+nmR135Zgvyv1G04EDErC+trS+L0+G3gHIS5MMQX7/x9CZOxZmMKz7lNXOY1NitSX5DGA5l1EPE+Htej31vOsqi5dVtCqE4K0HTnETU4vq2hZcRJ99lbIlfo89InLcd4aTqt1ztg3ttsq2BOWiZdUZ8PpqLWCgj5ljtlLf5EVxdVwtrrtbW978DXtOY4D+UW/8SMvZcwrQwhjRjizIdtWcXAozfU3VjLyrIe1wkXEb1O31dua+onJB9qDTVt+RpepJzfZpq2LzbL129T0MIYj0kGu2+gbUx+1DA9dJkVjf/ZpaTetY8e+29Znsr7baMyprE7uMrkRoYdgUPWdsT41rOn/5nc+1jBile22Cvas8GblVS4/9OFraBbuB+Gc/ndY37hv1e3POgV7vNfPOOOME+6fse+Tn/zkuM21bIl4UB2icbjJTgdcuHrMR4ibvkTRNmRehNl65jOfqWDfB6zn+40L9szeUJnTQR9b1nHKKacswmnEi4m4h5awh9cE3hNhFC4qdTpv1Wo4nLHBez3+MH/XZe9xrtyBqg1v7INIxQObjcqMB5gXgIXhScH5xozZMQT+es6x45b9vXrMcJ4xLydipOLRlL1DOK6KG0Mic33hLcf3iQzH1cM+eynRAcMrrDWZ1noe4Tkm2LMPHk8R/oZONS8IiyXwUzv7VTB4zWtec4J4xHVaRtm74hWv2CFyrts2wXJV90A9jMdrq57M16jLExn4tuLn1c5fnojM56uDPX7rE6CzgMt+lBWWMHPuanU5aF8Hb9WCPeUakSQ6l6QRr+qxVVt4at/lLndZCEC1Q1TvrS7/X5W3ZL3OYf5ehWBfvbiIL4t3SstqfrPPpgT7OjijLUU8qoIFXiVMeGVrCfb8vgv1G+nMdRx/94XFwUuH5zeeC/Z98IMfPFngVbBfXrCHOfVQn9H/Iy9y3vD+DwZSLUOYJyxXGOemXVhV/3FbBfvq6YejDaEOWmwZ29z85jcPRIv+NeOQbHUCmPOwDyJDy+rE9tikCufYVsGetNW6o+WIxEQs953LZp+wX73HuUYrzNAd73jHjmX8YWMT9bHftoqDkb6x57ymn/JG21XDCl760pdeCO4IYmP9FsQ0xMaLXOQikYwTnM4OvtzQBzz7ifMcNlSPxT51W8vlutq0et1V/V11g7Gxdb7uWBmibNDXyjrD0Mo6xEbSk8OsEIqrTtblNMz5XMt0PnYVzpfLrnqBE6uRw3jWGBu/973vja8OtjXEJfvSNuSxWF3Fz8HkQ9+7J3ip553vfOeDa0yZ3K1jtoODP/XhKD3sSUftDzOxSzuQjXERobnyy8aHVn7U5/ww7U8WoCNNpPmwHvaI4Yjm+fkJj/S4zpwt76RDQ82TQa3jL3CBCyxWJqCvhVEeaU9bxvPMMWF9L8Hl3ZH0FXN7zjiNcZAe9kFv2nbjgj3CMy80wRApnv70py8GCbwIKxsdLJZ+5kaCSo2C3IoFVR9EBA0e7hyagL9zvFuuN2cAmdO3zOfqJRnnoKMfsedbHszcd99SXAZedYk5nn5UtlU8QHBl0gCPFLiuasY77mNsW1+sx/55siIfz/2SVhqdvJQm9smDeb57wQtesBAHYBXGS0jqkiJ+U7APQuduq/BFWaSCzc8OjdPDH/7wRcV/4tHTBPv60qt8jqmTZniw0TjnhozJGhrJOsigcaDzwnUJ5zLlhXE5Tct+3gTLZdNWj6PRpHNBw8nEX8tTkg4wHmthrY5l/NbyiqhxF4lLyAAr5yHHTxXs2ZfnlyWPOc+r5yLhcOgAtzztVi3Yk6a6fBVOdBxbHiEI/NRLsIBD3wQI582WBXG+p/5mCexhYkfn8x/2c07fmDdQ37Vq+CyEBfoM+cVZ1AMMyhkgVSMNrbjGq/awJ99wHsjeTIhuDNhof1nJx7OTvUQjrX2C/S7Ub9xDdZDguypw0NfBIzY7W0yt5zkfltv4KULluUft3v+UJZa+U39mw8Mq6knqEyY/qrFioTXZhwDOAJctnn4hBNCO3+pWt+p4EWC2ofaxJZBQX7/pTW/Kp+j9fOaZZx5cv2+nVQr2rLTKL8Tlmkya5e+e97zndW9729tOSA4D2urtTT+CFTK5HDNZTJ87r+6rHuGcuCV41Mld9iOkFvVZji/PoJl2sooCQ2IE58JWKdgzuc6AP9tNb3rTxUuM4zviCrPKNRv9slZsfsZvrJrOhkPO85///MUkCHxYiZxFg7GVw6yuReQIo6wz0fvGN75x8RXlgbFHFgymrvRplf24zlxxcNUs8RilTw5n+hlnn332giH1CPdM/xfv8Wx9Xr84b7ASGWN8zfNBO/aOd7zjYHKKMSP9acaota4ibAJj8KOwOglG/5AyweqcVv+vlcZNtWmta8/9bpX1G9emP4yohscrz3G0JzyLPOvUnbmfQ1vUt7oZT/wnPvGJJ5QP+uJPSiush+6XsWeuB1v7bvMzWd8rGIJnFktp61mJHG0794gIz9ixGi8lzxNj6CGM1XLoHOo1mKCZ5TpuSn9rlYI9fV5Cd2bju6zfULZqPXHOOec0Q6wSRoV6PBsTRYx5GBdQ1qjXqbvCKJutCcn4fZXtT22bucZhBXs0OpyK8/NGnj/3uc+NWxjc0u7WcTwTOTgtUi8SUofwNYydOS9GvU6+8c66XCb5rRUOh+8x2vHb3OY25/7xqf9hTzueY9kzRmOinPoljH5TrJZTsA8q07ZHKtjnJJLZCIQISGRurnhiPyovZnFa1mpwOSeFgwqBznotjFMqtNa1DvNdHoRynioe1/Ah7EMHCu/vPquz6+wXPLl3HkxmIGsna9OCPRUDDXeujCKteC6RTmbsqLQi//viUFdveM4DS2azuQ4d/nq/7INV5ud+e+7LNKm0wo5LDHuEQwT6bOQFlT/PIjz512dTPOzJCwYVka/5XEPLzPN+fK5x0uN38pRnnbJF+ckDbPbhNzzj1m2bYLmqe6h1Ec8aHSqeIfhd6lKXOokj3s61E5XTUz0x+Y3zwp+6re+ZnCPYx/VIKytBWnV730Qgx65DsOe+eCdDLXc8R6STLe0P9VJth6YK9tWDJjhQ1+eBKYJ1S7SO/de1XYVgTxlhUq62EUwAcJ9Rt7fqEe5rU4I912JSGbFgrvUJ9pxn2+u3uNfqIMH3DE6pO+hrtNqLuc4RuX7aZ8G+tQowOI9tqYtbK1AQdrNR/9C3bj03PFeIdQzkWtYnALf2bX03pX+wSsG+71yttOXv+kIr1rCcHAMz6nX6HYgStU5veQPGtarAGN/TltFO8uxQD9a8GhsHxHn68muZVVl5ZWScf8qWviPiSDUmJRHoaz+A8kkbVr/n+LHQNQiYrTB59Duw2pZwLdLWWqW3OCD9t0pxcNUseaEnjgvZuOd6v/E7ZZX7bq3myIJ97B9bzklZrGU8fh8q67HPOrf0udAGWvdNXofxfLF6uM820ab1XXvO96uu32poluhP9uU3YjHj+JYNCcCt/et3fS8Vzftt8zOJowIhmmpZRGCmbqdvVMcIPF84qvB8VuO5rKGF2Ie+Fs8xecQ5a15xTlYijznzDOVXa8K5pi//jTDLpMFco7z1OaS26kz2R9eqHLkuIc5oL/psle3POgR7yg/5tqxRFzOhkS0E+/wdn6kbqddbKwL4ncmzGt2C78M4FscFmGaj7NE3QjvKQn3sw/gunCUU7IPKtO3WCPZjye3zDMjHMetLiIEphliPd0Ir9MeU45fdpy5xbQlgtQHtE7MiDTxwrB7Iy3Hjt6HtpgV70sKMG0tpcizJoTTy8OcZ2rxv5ZR/y58Z6NCAhocVDWP2Go596yTAcRHsuf8aKiqY1C0dBTyXmP0OmzIgZ1+8yK561avGYYstjQb5SyM81XjhCR2c2kkZOn5Tgj1p2ATLoXud+lsWxKYcwwCXZySLw/U4VjPg3TSUN+Q13qK5Y9JXx+WQOJQ9OgIIJENGWAfKWp+tQ7DnWqSLNoW4w3NsqmBPPY/3UoSS6rsGnlL5hc59+636+1UI9qQJrw1CCo0Z5eglL3nJCV4emxTsSR/9DSYCq7iW0453DPFIw4YEe/bZ9vqNNOJ9R9xQBotjRh3PyoNWGK2hY3P9pGDfJjVVsG8ffa7wjMBL/dtnfQJw3/71+yn9gz4RapkY9n3nqumqf/cJ9uxHDHDE0aHnPM6HkILnH/3OPqvL/fv2i+9p9+jjt8TW2Ce2ffm1DYI9aTz99NM7yu0Uls95znMW4Vfi3vq2fROddX/aDGLyMvaZYtssDrYE+757QjAkln1elZj3HRLs8371M2Wc52LT4+iaDtphxv9DNjSW5LhNtGlD6Zv626rrt6njaNI3VEfy+5AAzO9jtuuCPffHah9E+5bTQr1/yiT79oWiY3/Gx/e85z0n1ZfsT38LJ86hc7IfNpRf2yDY4+CEAD2FJatw6wTmuXd54v+ran92XbA/kcqJf8GSSdDWJFLek3E+k8B5hVv+PX+m7WVCJYfsVrDPhMY/b1ywZ8YFjxXEZWaTxjptDNQQNKbGyuTlfwhmfQ84hYYwPHVZzjiq1exRZyGZQUR0yIZQzLLlsKkVJxUIM15jg2g6WSzBevaznz1pABDpWOWWBohZ1ToTna9BpcFyZCZrWoY3DqzyC5XyfuQ1S19ZaoZIF5UKnUuWTVU7jGA/5NFbr3PYv5cN70BDXuMp57Sw1BXvrz6xlfxgoAW7vKwZwQpBfMxYCkjokGxj4lXeN38OcZR4iUN1CCs38BzEK6QuFcvnW/XndbNcRXqZ9GDJK570QwxptFnZxECBZ2rMWsva4xjKIPU54RR4JsP6np8s2JMOvAV4nlvhUEgbzwai7ZAdRrCvL4ZqXQfBlWek5S0Y+5NWvAwQMVlGyGTEFCOfIt+YgGx5zSJ0klebtvxy1WVD4kSar3e963WEisuhEeI3ttQ3TMrAmDoprIZmie/XVWdyftJK+D4mocPrh/zEQwWxHnEoe6T1TU5FWtlue/1GGil7CJPXv/71e+sPJvmYxBoSLzlXy7JgfxSrIVtpWsd3rXd6TL0OZb/lYU8dOdQ2Uv/AFPGyFWM3X79PAM77DH2e0j/IeZ3PtS2CPWmif83YonqURXphSvif6uEWv9ctzw0Tk0MTsAg6rJaYU5+T961J42UE++pgVO+h7+8+D/vYnz4C9UKrHWcf2nra/pe+9KVxyOiWcQDiQd/Yj7qIlST0Y6caHtmEgWnZ3JA4q2ZJHtMfCUekVhrpb73yla9cvBOAz33GqlTulfHzWH+Qc9D+4inZF0+77zrr/B7xkXaY+pR2uPZpKVMtR62cpnW3aflay35etWBPHcTYbGgsTt2BVtEKc5XvY0gAzvv1fZ4yHtzmZzLuixVSeMZTz9VyGPswOYHTA5OxY4Z2wYQbZbvPaH94OTfjq6kTaK13C8b5p+pOsf8ch9k4hi3p7vOw53eeZVZQEd6rxZJ6jXZ3yBuc82RbRfvTEuyJ997ST+ij0ccZs8N62PNOOsZA2XhfAnoi/ZYWv7wvUU6oXwivNscY7/Lst+6d81DGcSJ797vffcJpFexPwDH6x8YF+5wilrWwHJhCymCXjgKeACzrQMx4y1veMkkIzOeMzxROYvzxkHMdOpDEb6qx8mP/fdry0MCVdwUwGCDMDBMf3DsVx9TKfBNMaNjw1ia95D8eIOQ9HYOx5VyRPsQN8vpqV7vaQujgODrlxM+eKoTFuY77lgk1Ou2w5OVfVLTkCSyn5semGTJwYdYcgQLvb15oSx3CSoApy57Xld5dYckghecHfjGpxXfEL+VZPOussyYJ9ZkjHQOeac4bAgf1OeWIDtphjUE5k76cn/JJR5UO8DYZg2DKJR27EHKpgxFyGZisgsM23e860kL7TTk69dRTF55DCL/kNWVpGy3a2yxQUwbyi5twFiA25FTb1vot0s+zzsop2g3EI9pcyjd9DUQS7WgI0A/kHUdRrzO5hThPvc6kkXmzXL7AlbJO+DsMMYs2kvZnaPVZ39UQrRnsIsbEEnImUxg0049d5px919q27xFOeK8Y/Q7EAsZq9P2Jn76skTdMojK2oI2l30pcXfqE+2jcJ885LBlDIWAxYY5TxBQv28qE+pw2i3E55+PFvvQH6bvQH+S8lPl9tuPYppHnrLTgZac4SrCah34Mk2b7nt/rLMvU68QIx5GSOo4Y/bQXy7S/POvRVrCamWed8Q9tD2LtMudc572v8tyUSRwF0SWYyMYYB+D0tGwbeZj2pyXYr/J+V30uJuQYS1FuGKfwbgTaR55xxqT8Q389jKHFcQ3aDOpQ+i+Uy75JKQX7ebSPVLDfJuF4Hjb3loAEJCABCUhAAsMEeHk6K8rCCIfxmte8Jv50KwEJSEACEpCABCQgAQnsAIFdE+y3EamC/bxcUbCfx8u9JSABCUhAAhKQwCQC+WV2eLQQ0ghPK00CEpCABCQgAQlIQAIS2B0CCvaHzysF+3kMFezn8XJvCUhAAhKQgASOOQGWOfOSK96x8pSnPGURdi4jIWzTIx7xiMUS5vj+KF70Htd2KwEJSEACEpCABCQgAQksT0DBfnl2caSCfZCYtlWwn8bJvSQgAQlIQAISkMCCwB3veMeOl8iHffjDH17ESyb2K3Eiif+bX8JEvFFezNUXzzHO41YCEpCABCQgAQlIQAIS2D4CCvaHzxMF+3kMFezn8XJvCUhAAhKQgASOOYEq2A/h4CVZT3jCExYv+xzaz98kIAEJSEACEpCABCQgge0koGB/+HxRsJ/HUMF+Hi/3loAEJCABCUjgmBO4xjWu0T3oQQ/qLnGJS3TnOc95emm8+c1v7h71qEd1H/rQh3r38QcJSEACEpCABCQgAQlIYLsJKNgfPn8U7OcxVLCfx8u9JSABCUhAAhKQwIIAYv3pp5/eXelKV1qI9xe96EW7t7/97d0b3vCG7q1vfWvHi2Y1CUhAAhKQgAQkIAEJSGC3CSjYHz7/FOznMVSwn8fLvSUgAQlIQAISkIAEJCABCUhAAhKQgAQkIIFjQkDB/vAZrWA/j6GC/Txe7i0BCUhAAhKQgAQkIAEJSEACEpCABCQgAQkcEwIK9ofPaAX7eQyPVLCfl1T3loAEJCABCUhAAhKQgAQkIAEJSEACEpCABCSwOQKnnXba5i62p1e67xn3OenOHvqQh530nV+cS0DB3pIgAQlIQAISkIAEJCABCUhAAhKQgAQkIAEJSKBBQMG+AWXmVwr284Ap2M/j5d4SkIAEJCABCUhAAhKQgAQkIAEJSEACEpDAMSGgYH/4jFawn8dQwX4eL/eWgAQkIAEJSEACEpCABCQgAQlIQAISkIAEjgkBBfvDZ7SC/TyGCvbzeLm3BCQgAQlIQAISkIAEJCABCUhAAhKQgAQkcEwIKNgfPqMV7Ocx3JhgPy9Z7i0BCUhAAhKQgAQkIAEJSEACEpCABCQgAQlIQAISOF4EFOyPV357txKQgAQkIAEJSEACEpCABCQgAQlIQAISkIAEJLClBBTstzRjTJYEJCABCUhAAhKQgAQkIAEJSEACEpCABCQgAQkcLwIK9scrv71bCUhAAhKQgAQkIAEJSEACEpCABCQgAQlIQAIS2FICCvZbmjEmSwISkIAEJCABCUhAAhKQgAQkIAEJSEACEpCABI4XAQX745Xf3q0EJCABCUhAAhKQgAQkIAEJSEACEpCABCQgAQlsKQEF+y3NGJMlAQlIQAISkIAEJCABCUhAAhKQgAQkIAEJSEACx4uAgv3xym/vVgISkIAEJCABCUhAAhKQgAQkIAEJSEACEpCABLaUgIL9lmaMyZKABCQgAQlIQAISkIAEJCABCUhAAhKQgAQkIIHjRUDB/njlt3crAQlIQAISkIAEJCABCUhAAhKQgAQkIAEJSEACW0pAwX5LM8ZkSUACEpCABCQgAQlIQAISkIAEJCABCUhAAhKQwPEioGB/vPLbu5WABCQgAQlIQAISkIAEJCABCUhAAhKQgAQkIIEtJaBgv6UZY7IkIAEJSEACEpCABCQgAQlIQAISkIAEJCABCUjgeBFQsD9e+e3dSkACEpCABCQgAQlIQAISkIAEJCABCUhAAhKQwJYSULDf0owxWRKQgAQkIAEJSEACEpCABCQgAQlIQAISkIAEJHC8CCjYH6/89m4lIAEJSEACEpCABCQgAQlIQAISkIAEJCABCUhgSwko2G9pxpgsCUhAAhKQgAQkIAEJSEACEpCABCQgAQlIQAISOF4EFOyPV357txKQgAQkIAEJSEACEpCABCQgAQlIQAISkIAEJLClBBTstzRjTJYEJCABCUhAAhKQgAQkIAEJSEACEpCABCQgAQkcLwIK9scrv71bCUhAAhKQgAQkIAEJSEACEpCABCQgAQlIQAIS2FICCvZbmjEmSwISkIAEJCABCUhAAhKQgAQkIAEJSEACEpCABI4XAQX745Xf3q0EJCABCUhAAhKQgAQkIAEJSEACEpCABCQgAQlsKQEF+y3NGJMlAQlIQAISkIAEJCABCUhAAhKQgAQkIAEJSEACx4uAgv3xym/vVgISkIAEJCABCUhAAhKQgAQkIAEJSEACEpCABLaUgIL9lmaMyZKABCQgAQlIQAISkIAEJCABCUhAAhKQgAQkIIHjReD/AafgNmcr1oEFAAAAAElFTkSuQmCC;" vertex="1" parent="1">
          <mxGeometry x="-61" y="476" width="1516" height="286" as="geometry" />
        </mxCell>
      </root>
    </mxGraphModel>
  </diagram>
</mxfile>
